<svg style="vertical-align: -2.172ex;" xmlns="http://www.w3.org/2000/svg" width="62.14ex" height="6.158ex" role="img" focusable="false" viewBox="-165.8 -1596 27466 2721.7" xmlns:xlink="http://www.w3.org/1999/xlink"><rect id="equation-background" x="-165.8" y="-1596" width="27466" height="2721.7" fill="white" /><defs><path id="MJX-15-TEX-N-394" d="M51 0Q46 4 46 7Q46 9 215 357T388 709Q391 716 416 716Q439 716 444 709Q447 705 616 357T786 7Q786 4 781 0H51ZM507 344L384 596L137 92L383 91H630Q630 93 507 344Z"></path><path id="MJX-15-TEX-N-65" d="M28 218Q28 273 48 318T98 391T163 433T229 448Q282 448 320 430T378 380T406 316T415 245Q415 238 408 231H126V216Q126 68 226 36Q246 30 270 30Q312 30 342 62Q359 79 369 104L379 128Q382 131 395 131H398Q415 131 415 121Q415 117 412 108Q393 53 349 21T250 -11Q155 -11 92 58T28 218ZM333 275Q322 403 238 411H236Q228 411 220 410T195 402T166 381T143 340T127 274V267H333V275Z"></path><path id="MJX-15-TEX-N-70" d="M36 -148H50Q89 -148 97 -134V-126Q97 -119 97 -107T97 -77T98 -38T98 6T98 55T98 106Q98 140 98 177T98 243T98 296T97 335T97 351Q94 370 83 376T38 385H20V408Q20 431 22 431L32 432Q42 433 61 434T98 436Q115 437 135 438T165 441T176 442H179V416L180 390L188 397Q247 441 326 441Q407 441 464 377T522 216Q522 115 457 52T310 -11Q242 -11 190 33L182 40V-45V-101Q182 -128 184 -134T195 -145Q216 -148 244 -148H260V-194H252L228 -193Q205 -192 178 -192T140 -191Q37 -191 28 -194H20V-148H36ZM424 218Q424 292 390 347T305 402Q234 402 182 337V98Q222 26 294 26Q345 26 384 80T424 218Z"></path><path id="MJX-15-TEX-N-69" d="M69 609Q69 637 87 653T131 669Q154 667 171 652T188 609Q188 579 171 564T129 549Q104 549 87 564T69 609ZM247 0Q232 3 143 3Q132 3 106 3T56 1L34 0H26V46H42Q70 46 91 49Q100 53 102 60T104 102V205V293Q104 345 102 359T88 378Q74 385 41 385H30V408Q30 431 32 431L42 432Q52 433 70 434T106 436Q123 437 142 438T171 441T182 442H185V62Q190 52 197 50T232 46H255V0H247Z"></path><path id="MJX-15-TEX-N-73" d="M295 316Q295 356 268 385T190 414Q154 414 128 401Q98 382 98 349Q97 344 98 336T114 312T157 287Q175 282 201 278T245 269T277 256Q294 248 310 236T342 195T359 133Q359 71 321 31T198 -10H190Q138 -10 94 26L86 19L77 10Q71 4 65 -1L54 -11H46H42Q39 -11 33 -5V74V132Q33 153 35 157T45 162H54Q66 162 70 158T75 146T82 119T101 77Q136 26 198 26Q295 26 295 104Q295 133 277 151Q257 175 194 187T111 210Q75 227 54 256T33 318Q33 357 50 384T93 424T143 442T187 447H198Q238 447 268 432L283 424L292 431Q302 440 314 448H322H326Q329 448 335 442V310L329 304H301Q295 310 295 316Z"></path><path id="MJX-15-TEX-N-74" d="M27 422Q80 426 109 478T141 600V615H181V431H316V385H181V241Q182 116 182 100T189 68Q203 29 238 29Q282 29 292 100Q293 108 293 146V181H333V146V134Q333 57 291 17Q264 -10 221 -10Q187 -10 162 2T124 33T105 68T98 100Q97 107 97 248V385H18V422H27Z"></path><path id="MJX-15-TEX-N-6D" d="M41 46H55Q94 46 102 60V68Q102 77 102 91T102 122T103 161T103 203Q103 234 103 269T102 328V351Q99 370 88 376T43 385H25V408Q25 431 27 431L37 432Q47 433 65 434T102 436Q119 437 138 438T167 441T178 442H181V402Q181 364 182 364T187 369T199 384T218 402T247 421T285 437Q305 442 336 442Q351 442 364 440T387 434T406 426T421 417T432 406T441 395T448 384T452 374T455 366L457 361L460 365Q463 369 466 373T475 384T488 397T503 410T523 422T546 432T572 439T603 442Q729 442 740 329Q741 322 741 190V104Q741 66 743 59T754 49Q775 46 803 46H819V0H811L788 1Q764 2 737 2T699 3Q596 3 587 0H579V46H595Q656 46 656 62Q657 64 657 200Q656 335 655 343Q649 371 635 385T611 402T585 404Q540 404 506 370Q479 343 472 315T464 232V168V108Q464 78 465 68T468 55T477 49Q498 46 526 46H542V0H534L510 1Q487 2 460 2T422 3Q319 3 310 0H302V46H318Q379 46 379 62Q380 64 380 200Q379 335 378 343Q372 371 358 385T334 402T308 404Q263 404 229 370Q202 343 195 315T187 232V168V108Q187 78 188 68T191 55T200 49Q221 46 249 46H265V0H257L234 1Q210 2 183 2T145 3Q42 3 33 0H25V46H41Z"></path><path id="MJX-15-TEX-N-63" d="M370 305T349 305T313 320T297 358Q297 381 312 396Q317 401 317 402T307 404Q281 408 258 408Q209 408 178 376Q131 329 131 219Q131 137 162 90Q203 29 272 29Q313 29 338 55T374 117Q376 125 379 127T395 129H409Q415 123 415 120Q415 116 411 104T395 71T366 33T318 2T249 -11Q163 -11 99 53T34 214Q34 318 99 383T250 448T370 421T404 357Q404 334 387 320Z"></path><path id="MJX-15-TEX-N-28" d="M94 250Q94 319 104 381T127 488T164 576T202 643T244 695T277 729T302 750H315H319Q333 750 333 741Q333 738 316 720T275 667T226 581T184 443T167 250T184 58T225 -81T274 -167T316 -220T333 -241Q333 -250 318 -250H315H302L274 -226Q180 -141 137 -14T94 250Z"></path><path id="MJX-15-TEX-I-1D456" d="M184 600Q184 624 203 642T247 661Q265 661 277 649T290 619Q290 596 270 577T226 557Q211 557 198 567T184 600ZM21 287Q21 295 30 318T54 369T98 420T158 442Q197 442 223 419T250 357Q250 340 236 301T196 196T154 83Q149 61 149 51Q149 26 166 26Q175 26 185 29T208 43T235 78T260 137Q263 149 265 151T282 153Q302 153 302 143Q302 135 293 112T268 61T223 11T161 -11Q129 -11 102 10T74 74Q74 91 79 106T122 220Q160 321 166 341T173 380Q173 404 156 404H154Q124 404 99 371T61 287Q60 286 59 284T58 281T56 279T53 278T49 278T41 278H27Q21 284 21 287Z"></path><path id="MJX-15-TEX-N-29" d="M60 749L64 750Q69 750 74 750H86L114 726Q208 641 251 514T294 250Q294 182 284 119T261 12T224 -76T186 -143T145 -194T113 -227T90 -246Q87 -249 86 -250H74Q66 -250 63 -250T58 -247T55 -238Q56 -237 66 -225Q221 -64 221 250T66 725Q56 737 55 738Q55 746 60 749Z"></path><path id="MJX-15-TEX-N-3D" d="M56 347Q56 360 70 367H707Q722 359 722 347Q722 336 708 328L390 327H72Q56 332 56 347ZM56 153Q56 168 72 173H708Q722 163 722 153Q722 140 707 133H70Q56 140 56 153Z"></path><path id="MJX-15-TEX-I-1D436" d="M50 252Q50 367 117 473T286 641T490 704Q580 704 633 653Q642 643 648 636T656 626L657 623Q660 623 684 649Q691 655 699 663T715 679T725 690L740 705H746Q760 705 760 698Q760 694 728 561Q692 422 692 421Q690 416 687 415T669 413H653Q647 419 647 422Q647 423 648 429T650 449T651 481Q651 552 619 605T510 659Q484 659 454 652T382 628T299 572T226 479Q194 422 175 346T156 222Q156 108 232 58Q280 24 350 24Q441 24 512 92T606 240Q610 253 612 255T628 257Q648 257 648 248Q648 243 647 239Q618 132 523 55T319 -22Q206 -22 128 53T50 252Z"></path><path id="MJX-15-TEX-N-61" d="M137 305T115 305T78 320T63 359Q63 394 97 421T218 448Q291 448 336 416T396 340Q401 326 401 309T402 194V124Q402 76 407 58T428 40Q443 40 448 56T453 109V145H493V106Q492 66 490 59Q481 29 455 12T400 -6T353 12T329 54V58L327 55Q325 52 322 49T314 40T302 29T287 17T269 6T247 -2T221 -8T190 -11Q130 -11 82 20T34 107Q34 128 41 147T68 188T116 225T194 253T304 268H318V290Q318 324 312 340Q290 411 215 411Q197 411 181 410T156 406T148 403Q170 388 170 359Q170 334 154 320ZM126 106Q126 75 150 51T209 26Q247 26 276 49T315 109Q317 116 318 175Q318 233 317 233Q309 233 296 232T251 223T193 203T147 166T126 106Z"></path><path id="MJX-15-TEX-N-72" d="M36 46H50Q89 46 97 60V68Q97 77 97 91T98 122T98 161T98 203Q98 234 98 269T98 328L97 351Q94 370 83 376T38 385H20V408Q20 431 22 431L32 432Q42 433 60 434T96 436Q112 437 131 438T160 441T171 442H174V373Q213 441 271 441H277Q322 441 343 419T364 373Q364 352 351 337T313 322Q288 322 276 338T263 372Q263 381 265 388T270 400T273 405Q271 407 250 401Q234 393 226 386Q179 341 179 207V154Q179 141 179 127T179 101T180 81T180 66V61Q181 59 183 57T188 54T193 51T200 49T207 48T216 47T225 47T235 46T245 46H276V0H267Q249 3 140 3Q37 3 28 0H20V46H36Z"></path><path id="MJX-15-TEX-N-6E" d="M41 46H55Q94 46 102 60V68Q102 77 102 91T102 122T103 161T103 203Q103 234 103 269T102 328V351Q99 370 88 376T43 385H25V408Q25 431 27 431L37 432Q47 433 65 434T102 436Q119 437 138 438T167 441T178 442H181V402Q181 364 182 364T187 369T199 384T218 402T247 421T285 437Q305 442 336 442Q450 438 463 329Q464 322 464 190V104Q464 66 466 59T477 49Q498 46 526 46H542V0H534L510 1Q487 2 460 2T422 3Q319 3 310 0H302V46H318Q379 46 379 62Q380 64 380 200Q379 335 378 343Q372 371 358 385T334 402T308 404Q263 404 229 370Q202 343 195 315T187 232V168V108Q187 78 188 68T191 55T200 49Q221 46 249 46H265V0H257L234 1Q210 2 183 2T145 3Q42 3 33 0H25V46H41Z"></path><path id="MJX-15-TEX-N-2212" d="M84 237T84 250T98 270H679Q694 262 694 250T679 230H98Q84 237 84 250Z"></path><path id="MJX-15-TEX-N-77" d="M90 368Q84 378 76 380T40 385H18V431H24L43 430Q62 430 84 429T116 428Q206 428 221 431H229V385H215Q177 383 177 368Q177 367 221 239L265 113L339 328L333 345Q323 374 316 379Q308 384 278 385H258V431H264Q270 428 348 428Q439 428 454 431H461V385H452Q404 385 404 369Q404 366 418 324T449 234T481 143L496 100L537 219Q579 341 579 347Q579 363 564 373T530 385H522V431H529Q541 428 624 428Q692 428 698 431H703V385H697Q696 385 691 385T682 384Q635 377 619 334L559 161Q546 124 528 71Q508 12 503 1T487 -11H479Q460 -11 456 -4Q455 -3 407 133L361 267Q359 263 266 -4Q261 -11 243 -11H238Q225 -11 220 -3L90 368Z"></path><path id="MJX-15-TEX-N-64" d="M376 495Q376 511 376 535T377 568Q377 613 367 624T316 637H298V660Q298 683 300 683L310 684Q320 685 339 686T376 688Q393 689 413 690T443 693T454 694H457V390Q457 84 458 81Q461 61 472 55T517 46H535V0Q533 0 459 -5T380 -11H373V44L365 37Q307 -11 235 -11Q158 -11 96 50T34 215Q34 315 97 378T244 442Q319 442 376 393V495ZM373 342Q328 405 260 405Q211 405 173 369Q146 341 139 305T131 211Q131 155 138 120T173 59Q203 26 251 26Q322 26 373 103V342Z"></path><path id="MJX-15-TEX-N-221D" d="M56 124T56 216T107 375T238 442Q260 442 280 438T319 425T352 407T382 385T406 361T427 336T442 315T455 297T462 285L469 297Q555 442 679 442Q687 442 722 437V398H718Q710 400 694 400Q657 400 623 383T567 343T527 294T503 253T495 235Q495 231 520 192T554 143Q625 44 696 44Q717 44 719 46H722V-5Q695 -11 678 -11Q552 -11 457 141Q455 145 454 146L447 134Q362 -11 235 -11Q157 -11 107 56ZM93 213Q93 143 126 87T220 31Q258 31 292 48T349 88T389 137T413 178T421 196Q421 200 396 239T362 288Q322 345 288 366T213 387Q163 387 128 337T93 213Z"></path><path id="MJX-15-TEX-I-1D440" d="M289 629Q289 635 232 637Q208 637 201 638T194 648Q194 649 196 659Q197 662 198 666T199 671T201 676T203 679T207 681T212 683T220 683T232 684Q238 684 262 684T307 683Q386 683 398 683T414 678Q415 674 451 396L487 117L510 154Q534 190 574 254T662 394Q837 673 839 675Q840 676 842 678T846 681L852 683H948Q965 683 988 683T1017 684Q1051 684 1051 673Q1051 668 1048 656T1045 643Q1041 637 1008 637Q968 636 957 634T939 623Q936 618 867 340T797 59Q797 55 798 54T805 50T822 48T855 46H886Q892 37 892 35Q892 19 885 5Q880 0 869 0Q864 0 828 1T736 2Q675 2 644 2T609 1Q592 1 592 11Q592 13 594 25Q598 41 602 43T625 46Q652 46 685 49Q699 52 704 61Q706 65 742 207T813 490T848 631L654 322Q458 10 453 5Q451 4 449 3Q444 0 433 0Q418 0 415 7Q413 11 374 317L335 624L267 354Q200 88 200 79Q206 46 272 46H282Q288 41 289 37T286 19Q282 3 278 1Q274 0 267 0Q265 0 255 0T221 1T157 2Q127 2 95 1T58 0Q43 0 39 2T35 11Q35 13 38 25T43 40Q45 46 65 46Q135 46 154 86Q158 92 223 354T289 629Z"></path><path id="MJX-15-TEX-I-1D45D" d="M23 287Q24 290 25 295T30 317T40 348T55 381T75 411T101 433T134 442Q209 442 230 378L240 387Q302 442 358 442Q423 442 460 395T497 281Q497 173 421 82T249 -10Q227 -10 210 -4Q199 1 187 11T168 28L161 36Q160 35 139 -51T118 -138Q118 -144 126 -145T163 -148H188Q194 -155 194 -157T191 -175Q188 -187 185 -190T172 -194Q170 -194 161 -194T127 -193T65 -192Q-5 -192 -24 -194H-32Q-39 -187 -39 -183Q-37 -156 -26 -148H-6Q28 -147 33 -136Q36 -130 94 103T155 350Q156 355 156 364Q156 405 131 405Q109 405 94 377T71 316T59 280Q57 278 43 278H29Q23 284 23 287ZM178 102Q200 26 252 26Q282 26 310 49T356 107Q374 141 392 215T411 325V331Q411 405 350 405Q339 405 328 402T306 393T286 380T269 365T254 350T243 336T235 326L232 322Q232 321 229 308T218 264T204 212Q178 106 178 102Z"></path><path id="MJX-15-TEX-I-1D460" d="M131 289Q131 321 147 354T203 415T300 442Q362 442 390 415T419 355Q419 323 402 308T364 292Q351 292 340 300T328 326Q328 342 337 354T354 372T367 378Q368 378 368 379Q368 382 361 388T336 399T297 405Q249 405 227 379T204 326Q204 301 223 291T278 274T330 259Q396 230 396 163Q396 135 385 107T352 51T289 7T195 -10Q118 -10 86 19T53 87Q53 126 74 143T118 160Q133 160 146 151T160 120Q160 94 142 76T111 58Q109 57 108 57T107 55Q108 52 115 47T146 34T201 27Q237 27 263 38T301 66T318 97T323 122Q323 150 302 164T254 181T195 196T148 231Q131 256 131 289Z"></path><path id="MJX-15-TEX-I-1D451" d="M366 683Q367 683 438 688T511 694Q523 694 523 686Q523 679 450 384T375 83T374 68Q374 26 402 26Q411 27 422 35Q443 55 463 131Q469 151 473 152Q475 153 483 153H487H491Q506 153 506 145Q506 140 503 129Q490 79 473 48T445 8T417 -8Q409 -10 393 -10Q359 -10 336 5T306 36L300 51Q299 52 296 50Q294 48 292 46Q233 -10 172 -10Q117 -10 75 30T33 157Q33 205 53 255T101 341Q148 398 195 420T280 442Q336 442 364 400Q369 394 369 396Q370 400 396 505T424 616Q424 629 417 632T378 637H357Q351 643 351 645T353 664Q358 683 366 683ZM352 326Q329 405 277 405Q242 405 210 374T160 293Q131 214 119 129Q119 126 119 118T118 106Q118 61 136 44T179 26Q233 26 290 98L298 109L352 326Z"></path><path id="MJX-15-TEX-N-22C5" d="M78 250Q78 274 95 292T138 310Q162 310 180 294T199 251Q199 226 182 208T139 190T96 207T78 250Z"></path><path id="MJX-15-TEX-I-1D439" d="M48 1Q31 1 31 11Q31 13 34 25Q38 41 42 43T65 46Q92 46 125 49Q139 52 144 61Q146 66 215 342T285 622Q285 629 281 629Q273 632 228 634H197Q191 640 191 642T193 659Q197 676 203 680H742Q749 676 749 669Q749 664 736 557T722 447Q720 440 702 440H690Q683 445 683 453Q683 454 686 477T689 530Q689 560 682 579T663 610T626 626T575 633T503 634H480Q398 633 393 631Q388 629 386 623Q385 622 352 492L320 363H375Q378 363 398 363T426 364T448 367T472 374T489 386Q502 398 511 419T524 457T529 475Q532 480 548 480H560Q567 475 567 470Q567 467 536 339T502 207Q500 200 482 200H470Q463 206 463 212Q463 215 468 234T473 274Q473 303 453 310T364 317H309L277 190Q245 66 245 60Q245 46 334 46H359Q365 40 365 39T363 19Q359 6 353 0H336Q295 2 185 2Q120 2 86 2T48 1Z"></path><path id="MJX-15-TEX-N-31" d="M213 578L200 573Q186 568 160 563T102 556H83V602H102Q149 604 189 617T245 641T273 663Q275 666 285 666Q294 666 302 660V361L303 61Q310 54 315 52T339 48T401 46H427V0H416Q395 3 257 3Q121 3 100 0H88V46H114Q136 46 152 46T177 47T193 50T201 52T207 57T213 61V578Z"></path><path id="MJX-15-TEX-N-30" d="M96 585Q152 666 249 666Q297 666 345 640T423 548Q460 465 460 320Q460 165 417 83Q397 41 362 16T301 -15T250 -22Q224 -22 198 -16T137 16T82 83Q39 165 39 320Q39 494 96 585ZM321 597Q291 629 250 629Q208 629 178 597Q153 571 145 525T137 333Q137 175 145 125T181 46Q209 16 250 16Q290 16 318 46Q347 76 354 130T362 333Q362 478 354 524T321 597Z"></path></defs><g stroke="currentColor" fill="currentColor" stroke-width="0" transform="scale(1,-1)"><g data-mml-node="math"><g data-mml-node="msub"><g data-mml-node="mi"><use data-c="394" xlink:href="#MJX-15-TEX-N-394"></use></g><g data-mml-node="TeXAtom" transform="translate(866,-150) scale(0.707)" data-mjx-texclass="ORD"><g data-mml-node="mtext"><use data-c="65" xlink:href="#MJX-15-TEX-N-65"></use><use data-c="70" xlink:href="#MJX-15-TEX-N-70" transform="translate(444,0)"></use><use data-c="69" xlink:href="#MJX-15-TEX-N-69" transform="translate(1000,0)"></use><use data-c="73" xlink:href="#MJX-15-TEX-N-73" transform="translate(1278,0)"></use><use data-c="74" xlink:href="#MJX-15-TEX-N-74" transform="translate(1672,0)"></use><use data-c="65" xlink:href="#MJX-15-TEX-N-65" transform="translate(2061,0)"></use><use data-c="6D" xlink:href="#MJX-15-TEX-N-6D" transform="translate(2505,0)"></use><use data-c="69" xlink:href="#MJX-15-TEX-N-69" transform="translate(3338,0)"></use><use data-c="63" xlink:href="#MJX-15-TEX-N-63" transform="translate(3616,0)"></use></g></g></g><g data-mml-node="mo" transform="translate(3786.9,0)"><use data-c="28" xlink:href="#MJX-15-TEX-N-28"></use></g><g data-mml-node="mi" transform="translate(4175.9,0)"><use data-c="1D456" xlink:href="#MJX-15-TEX-I-1D456"></use></g><g data-mml-node="mo" transform="translate(4520.9,0)"><use data-c="29" xlink:href="#MJX-15-TEX-N-29"></use></g><g data-mml-node="mo" transform="translate(5187.6,0)"><use data-c="3D" xlink:href="#MJX-15-TEX-N-3D"></use></g><g data-mml-node="msub" transform="translate(6243.4,0)"><g data-mml-node="mi"><use data-c="1D436" xlink:href="#MJX-15-TEX-I-1D436"></use></g><g data-mml-node="TeXAtom" transform="translate(748,-150) scale(0.707)" data-mjx-texclass="ORD"><g data-mml-node="mtext"><use data-c="61" xlink:href="#MJX-15-TEX-N-61"></use><use data-c="70" xlink:href="#MJX-15-TEX-N-70" transform="translate(500,0)"></use><use data-c="70" xlink:href="#MJX-15-TEX-N-70" transform="translate(1056,0)"></use><use data-c="61" xlink:href="#MJX-15-TEX-N-61" transform="translate(1612,0)"></use><use data-c="72" xlink:href="#MJX-15-TEX-N-72" transform="translate(2112,0)"></use><use data-c="65" xlink:href="#MJX-15-TEX-N-65" transform="translate(2504,0)"></use><use data-c="6E" xlink:href="#MJX-15-TEX-N-6E" transform="translate(2948,0)"></use><use data-c="74" xlink:href="#MJX-15-TEX-N-74" transform="translate(3504,0)"></use></g></g></g><g data-mml-node="mo" transform="translate(9794.2,0)"><use data-c="28" xlink:href="#MJX-15-TEX-N-28"></use></g><g data-mml-node="mi" transform="translate(10183.2,0)"><use data-c="1D456" xlink:href="#MJX-15-TEX-I-1D456"></use></g><g data-mml-node="mo" transform="translate(10528.2,0)"><use data-c="29" xlink:href="#MJX-15-TEX-N-29"></use></g><g data-mml-node="mo" transform="translate(11139.4,0)"><use data-c="2212" xlink:href="#MJX-15-TEX-N-2212"></use></g><g data-mml-node="msub" transform="translate(12139.6,0)"><g data-mml-node="mi"><use data-c="1D436" xlink:href="#MJX-15-TEX-I-1D436"></use></g><g data-mml-node="TeXAtom" transform="translate(748,-150) scale(0.707)" data-mjx-texclass="ORD"><g data-mml-node="mtext"><use data-c="77" xlink:href="#MJX-15-TEX-N-77"></use><use data-c="61" xlink:href="#MJX-15-TEX-N-61" transform="translate(722,0)"></use><use data-c="72" xlink:href="#MJX-15-TEX-N-72" transform="translate(1222,0)"></use><use data-c="72" xlink:href="#MJX-15-TEX-N-72" transform="translate(1614,0)"></use><use data-c="61" xlink:href="#MJX-15-TEX-N-61" transform="translate(2006,0)"></use><use data-c="6E" xlink:href="#MJX-15-TEX-N-6E" transform="translate(2506,0)"></use><use data-c="74" xlink:href="#MJX-15-TEX-N-74" transform="translate(3062,0)"></use><use data-c="65" xlink:href="#MJX-15-TEX-N-65" transform="translate(3451,0)"></use><use data-c="64" xlink:href="#MJX-15-TEX-N-64" transform="translate(3895,0)"></use></g></g></g><g data-mml-node="mo" transform="translate(16085,0)"><use data-c="28" xlink:href="#MJX-15-TEX-N-28"></use></g><g data-mml-node="mi" transform="translate(16474,0)"><use data-c="1D456" xlink:href="#MJX-15-TEX-I-1D456"></use></g><g data-mml-node="mo" transform="translate(16819,0)"><use data-c="29" xlink:href="#MJX-15-TEX-N-29"></use></g><g data-mml-node="mo" transform="translate(17485.7,0)"><use data-c="221D" xlink:href="#MJX-15-TEX-N-221D"></use></g><g data-mml-node="mfrac" transform="translate(18541.5,0)"><g data-mml-node="msub" transform="translate(1703.2,747.2)"><g data-mml-node="mi"><use data-c="1D440" xlink:href="#MJX-15-TEX-I-1D440"></use></g><g data-mml-node="mi" transform="translate(1003,-150) scale(0.707)"><use data-c="1D45D" xlink:href="#MJX-15-TEX-I-1D45D"></use></g></g><g data-mml-node="mrow" transform="translate(220,-710)"><g data-mml-node="msub"><g data-mml-node="mi"><use data-c="1D440" xlink:href="#MJX-15-TEX-I-1D440"></use></g><g data-mml-node="mi" transform="translate(1003,-150) scale(0.707)"><use data-c="1D460" xlink:href="#MJX-15-TEX-I-1D460"></use></g></g><g data-mml-node="mo" transform="translate(1384.6,0)"><use data-c="28" xlink:href="#MJX-15-TEX-N-28"></use></g><g data-mml-node="mi" transform="translate(1773.6,0)"><use data-c="1D451" xlink:href="#MJX-15-TEX-I-1D451"></use></g><g data-mml-node="mo" transform="translate(2293.6,0)"><use data-c="29" xlink:href="#MJX-15-TEX-N-29"></use></g><g data-mml-node="mo" transform="translate(2904.9,0)"><use data-c="22C5" xlink:href="#MJX-15-TEX-N-22C5"></use></g><g data-mml-node="msub" transform="translate(3405.1,0)"><g data-mml-node="mi"><use data-c="1D439" xlink:href="#MJX-15-TEX-I-1D439"></use></g><g data-mml-node="mi" transform="translate(676,-150) scale(0.707)"><use data-c="1D456" xlink:href="#MJX-15-TEX-I-1D456"></use></g></g></g><rect width="4575" height="60" x="120" y="220"></rect></g><g data-mml-node="mstyle" transform="translate(23356.5,0)"><g data-mml-node="mspace"></g></g><g data-mml-node="mo" transform="translate(25356.5,0)"><use data-c="28" xlink:href="#MJX-15-TEX-N-28"></use></g><g data-mml-node="mn" transform="translate(25745.5,0)"><use data-c="31" xlink:href="#MJX-15-TEX-N-31"></use><use data-c="30" xlink:href="#MJX-15-TEX-N-30" transform="translate(500,0)"></use></g><g data-mml-node="mo" transform="translate(26745.5,0)"><use data-c="29" xlink:href="#MJX-15-TEX-N-29"></use></g></g></g></svg>