<svg style="vertical-align: -1.654ex;" xmlns="http://www.w3.org/2000/svg" width="57.839ex" height="5.82ex" role="img" focusable="false" viewBox="-165.7 -1675.6 25564.6 2572.4" xmlns:xlink="http://www.w3.org/1999/xlink"><rect id="equation-background" x="-165.7" y="-1675.6" width="25564.6" height="2572.4" fill="white" /><defs><path id="MJX-50-TEX-I-1D451" d="M366 683Q367 683 438 688T511 694Q523 694 523 686Q523 679 450 384T375 83T374 68Q374 26 402 26Q411 27 422 35Q443 55 463 131Q469 151 473 152Q475 153 483 153H487H491Q506 153 506 145Q506 140 503 129Q490 79 473 48T445 8T417 -8Q409 -10 393 -10Q359 -10 336 5T306 36L300 51Q299 52 296 50Q294 48 292 46Q233 -10 172 -10Q117 -10 75 30T33 157Q33 205 53 255T101 341Q148 398 195 420T280 442Q336 442 364 400Q369 394 369 396Q370 400 396 505T424 616Q424 629 417 632T378 637H357Q351 643 351 645T353 664Q358 683 366 683ZM352 326Q329 405 277 405Q242 405 210 374T160 293Q131 214 119 129Q119 126 119 118T118 106Q118 61 136 44T179 26Q233 26 290 98L298 109L352 326Z"></path><path id="MJX-50-TEX-I-1D461" d="M26 385Q19 392 19 395Q19 399 22 411T27 425Q29 430 36 430T87 431H140L159 511Q162 522 166 540T173 566T179 586T187 603T197 615T211 624T229 626Q247 625 254 615T261 596Q261 589 252 549T232 470L222 433Q222 431 272 431H323Q330 424 330 420Q330 398 317 385H210L174 240Q135 80 135 68Q135 26 162 26Q197 26 230 60T283 144Q285 150 288 151T303 153H307Q322 153 322 145Q322 142 319 133Q314 117 301 95T267 48T216 6T155 -11Q125 -11 98 4T59 56Q57 64 57 83V101L92 241Q127 382 128 383Q128 385 77 385H26Z"></path><path id="MJX-50-TEX-N-28" d="M94 250Q94 319 104 381T127 488T164 576T202 643T244 695T277 729T302 750H315H319Q333 750 333 741Q333 738 316 720T275 667T226 581T184 443T167 250T184 58T225 -81T274 -167T316 -220T333 -241Q333 -250 318 -250H315H302L274 -226Q180 -141 137 -14T94 250Z"></path><path id="MJX-50-TEX-I-1D439" d="M48 1Q31 1 31 11Q31 13 34 25Q38 41 42 43T65 46Q92 46 125 49Q139 52 144 61Q146 66 215 342T285 622Q285 629 281 629Q273 632 228 634H197Q191 640 191 642T193 659Q197 676 203 680H742Q749 676 749 669Q749 664 736 557T722 447Q720 440 702 440H690Q683 445 683 453Q683 454 686 477T689 530Q689 560 682 579T663 610T626 626T575 633T503 634H480Q398 633 393 631Q388 629 386 623Q385 622 352 492L320 363H375Q378 363 398 363T426 364T448 367T472 374T489 386Q502 398 511 419T524 457T529 475Q532 480 548 480H560Q567 475 567 470Q567 467 536 339T502 207Q500 200 482 200H470Q463 206 463 212Q463 215 468 234T473 274Q473 303 453 310T364 317H309L277 190Q245 66 245 60Q245 46 334 46H359Q365 40 365 39T363 19Q359 6 353 0H336Q295 2 185 2Q120 2 86 2T48 1Z"></path><path id="MJX-50-TEX-I-1D43B" d="M228 637Q194 637 192 641Q191 643 191 649Q191 673 202 682Q204 683 219 683Q260 681 355 681Q389 681 418 681T463 682T483 682Q499 682 499 672Q499 670 497 658Q492 641 487 638H485Q483 638 480 638T473 638T464 637T455 637Q416 636 405 634T387 623Q384 619 355 500Q348 474 340 442T328 395L324 380Q324 378 469 378H614L615 381Q615 384 646 504Q674 619 674 627T617 637Q594 637 587 639T580 648Q580 650 582 660Q586 677 588 679T604 682Q609 682 646 681T740 680Q802 680 835 681T871 682Q888 682 888 672Q888 645 876 638H874Q872 638 869 638T862 638T853 637T844 637Q805 636 794 634T776 623Q773 618 704 340T634 58Q634 51 638 51Q646 48 692 46H723Q729 38 729 37T726 19Q722 6 716 0H701Q664 2 567 2Q533 2 504 2T458 2T437 1Q420 1 420 10Q420 15 423 24Q428 43 433 45Q437 46 448 46H454Q481 46 514 49Q520 50 522 50T528 55T534 64T540 82T547 110T558 153Q565 181 569 198Q602 330 602 331T457 332H312L279 197Q245 63 245 58Q245 51 253 49T303 46H334Q340 38 340 37T337 19Q333 6 327 0H312Q275 2 178 2Q144 2 115 2T69 2T48 1Q31 1 31 10Q31 12 34 24Q39 43 44 45Q48 46 59 46H65Q92 46 125 49Q139 52 144 61Q147 65 216 339T285 628Q285 635 228 637Z"></path><path id="MJX-50-TEX-N-2212" d="M84 237T84 250T98 270H679Q694 262 694 250T679 230H98Q84 237 84 250Z"></path><path id="MJX-50-TEX-I-1D43F" d="M228 637Q194 637 192 641Q191 643 191 649Q191 673 202 682Q204 683 217 683Q271 680 344 680Q485 680 506 683H518Q524 677 524 674T522 656Q517 641 513 637H475Q406 636 394 628Q387 624 380 600T313 336Q297 271 279 198T252 88L243 52Q243 48 252 48T311 46H328Q360 46 379 47T428 54T478 72T522 106T564 161Q580 191 594 228T611 270Q616 273 628 273H641Q647 264 647 262T627 203T583 83T557 9Q555 4 553 3T537 0T494 -1Q483 -1 418 -1T294 0H116Q32 0 32 10Q32 17 34 24Q39 43 44 45Q48 46 59 46H65Q92 46 125 49Q139 52 144 61Q147 65 216 339T285 628Q285 635 228 637Z"></path><path id="MJX-50-TEX-N-29" d="M60 749L64 750Q69 750 74 750H86L114 726Q208 641 251 514T294 250Q294 182 284 119T261 12T224 -76T186 -143T145 -194T113 -227T90 -246Q87 -249 86 -250H74Q66 -250 63 -250T58 -247T55 -238Q56 -237 66 -225Q221 -64 221 250T66 725Q56 737 55 738Q55 746 60 749Z"></path><path id="MJX-50-TEX-N-3E" d="M84 520Q84 528 88 533T96 539L99 540Q106 540 253 471T544 334L687 265Q694 260 694 250T687 235Q685 233 395 96L107 -40H101Q83 -38 83 -20Q83 -19 83 -17Q82 -10 98 -1Q117 9 248 71Q326 108 378 132L626 250L378 368Q90 504 86 509Q84 513 84 520Z"></path><path id="MJX-50-TEX-N-30" d="M96 585Q152 666 249 666Q297 666 345 640T423 548Q460 465 460 320Q460 165 417 83Q397 41 362 16T301 -15T250 -22Q224 -22 198 -16T137 16T82 83Q39 165 39 320Q39 494 96 585ZM321 597Q291 629 250 629Q208 629 178 597Q153 571 145 525T137 333Q137 175 145 125T181 46Q209 16 250 16Q290 16 318 46Q347 76 354 130T362 333Q362 478 354 524T321 597Z"></path><path id="MJX-50-TEX-N-61" d="M137 305T115 305T78 320T63 359Q63 394 97 421T218 448Q291 448 336 416T396 340Q401 326 401 309T402 194V124Q402 76 407 58T428 40Q443 40 448 56T453 109V145H493V106Q492 66 490 59Q481 29 455 12T400 -6T353 12T329 54V58L327 55Q325 52 322 49T314 40T302 29T287 17T269 6T247 -2T221 -8T190 -11Q130 -11 82 20T34 107Q34 128 41 147T68 188T116 225T194 253T304 268H318V290Q318 324 312 340Q290 411 215 411Q197 411 181 410T156 406T148 403Q170 388 170 359Q170 334 154 320ZM126 106Q126 75 150 51T209 26Q247 26 276 49T315 109Q317 116 318 175Q318 233 317 233Q309 233 296 232T251 223T193 203T147 166T126 106Z"></path><path id="MJX-50-TEX-N-6E" d="M41 46H55Q94 46 102 60V68Q102 77 102 91T102 122T103 161T103 203Q103 234 103 269T102 328V351Q99 370 88 376T43 385H25V408Q25 431 27 431L37 432Q47 433 65 434T102 436Q119 437 138 438T167 441T178 442H181V402Q181 364 182 364T187 369T199 384T218 402T247 421T285 437Q305 442 336 442Q450 438 463 329Q464 322 464 190V104Q464 66 466 59T477 49Q498 46 526 46H542V0H534L510 1Q487 2 460 2T422 3Q319 3 310 0H302V46H318Q379 46 379 62Q380 64 380 200Q379 335 378 343Q372 371 358 385T334 402T308 404Q263 404 229 370Q202 343 195 315T187 232V168V108Q187 78 188 68T191 55T200 49Q221 46 249 46H265V0H257L234 1Q210 2 183 2T145 3Q42 3 33 0H25V46H41Z"></path><path id="MJX-50-TEX-N-64" d="M376 495Q376 511 376 535T377 568Q377 613 367 624T316 637H298V660Q298 683 300 683L310 684Q320 685 339 686T376 688Q393 689 413 690T443 693T454 694H457V390Q457 84 458 81Q461 61 472 55T517 46H535V0Q533 0 459 -5T380 -11H373V44L365 37Q307 -11 235 -11Q158 -11 96 50T34 215Q34 315 97 378T244 442Q319 442 376 393V495ZM373 342Q328 405 260 405Q211 405 173 369Q146 341 139 305T131 211Q131 155 138 120T173 59Q203 26 251 26Q322 26 373 103V342Z"></path><path id="MJX-50-TEX-N-32" d="M109 429Q82 429 66 447T50 491Q50 562 103 614T235 666Q326 666 387 610T449 465Q449 422 429 383T381 315T301 241Q265 210 201 149L142 93L218 92Q375 92 385 97Q392 99 409 186V189H449V186Q448 183 436 95T421 3V0H50V19V31Q50 38 56 46T86 81Q115 113 136 137Q145 147 170 174T204 211T233 244T261 278T284 308T305 340T320 369T333 401T340 431T343 464Q343 527 309 573T212 619Q179 619 154 602T119 569T109 550Q109 549 114 549Q132 549 151 535T170 489Q170 464 154 447T109 429Z"></path><path id="MJX-50-TEX-N-31" d="M213 578L200 573Q186 568 160 563T102 556H83V602H102Q149 604 189 617T245 641T273 663Q275 666 285 666Q294 666 302 660V361L303 61Q310 54 315 52T339 48T401 46H427V0H416Q395 3 257 3Q121 3 100 0H88V46H114Q136 46 152 46T177 47T193 50T201 52T207 57T213 61V578Z"></path><path id="MJX-50-TEX-N-36" d="M42 313Q42 476 123 571T303 666Q372 666 402 630T432 550Q432 525 418 510T379 495Q356 495 341 509T326 548Q326 592 373 601Q351 623 311 626Q240 626 194 566Q147 500 147 364L148 360Q153 366 156 373Q197 433 263 433H267Q313 433 348 414Q372 400 396 374T435 317Q456 268 456 210V192Q456 169 451 149Q440 90 387 34T253 -22Q225 -22 199 -14T143 16T92 75T56 172T42 313ZM257 397Q227 397 205 380T171 335T154 278T148 216Q148 133 160 97T198 39Q222 21 251 21Q302 21 329 59Q342 77 347 104T352 209Q352 289 347 316T329 361Q302 397 257 397Z"></path><path id="MJX-50-TEX-N-2C" d="M78 35T78 60T94 103T137 121Q165 121 187 96T210 8Q210 -27 201 -60T180 -117T154 -158T130 -185T117 -194Q113 -194 104 -185T95 -172Q95 -168 106 -156T131 -126T157 -76T173 -3V9L172 8Q170 7 167 6T161 3T152 1T140 0Q113 0 96 17Z"></path><path id="MJX-50-TEX-I-1D44E" d="M33 157Q33 258 109 349T280 441Q331 441 370 392Q386 422 416 422Q429 422 439 414T449 394Q449 381 412 234T374 68Q374 43 381 35T402 26Q411 27 422 35Q443 55 463 131Q469 151 473 152Q475 153 483 153H487Q506 153 506 144Q506 138 501 117T481 63T449 13Q436 0 417 -8Q409 -10 393 -10Q359 -10 336 5T306 36L300 51Q299 52 296 50Q294 48 292 46Q233 -10 172 -10Q117 -10 75 30T33 157ZM351 328Q351 334 346 350T323 385T277 405Q242 405 210 374T160 293Q131 214 119 129Q119 126 119 118T118 106Q118 61 136 44T179 26Q217 26 254 59T298 110Q300 114 325 217T351 328Z"></path></defs><g stroke="currentColor" fill="currentColor" stroke-width="0" transform="scale(1,-1)"><g data-mml-node="math"><g data-mml-node="mfrac"><g data-mml-node="mi" transform="translate(400.5,676)"><use data-c="1D451" xlink:href="#MJX-50-TEX-I-1D451"></use></g><g data-mml-node="mrow" transform="translate(220,-686)"><g data-mml-node="mi"><use data-c="1D451" xlink:href="#MJX-50-TEX-I-1D451"></use></g><g data-mml-node="mi" transform="translate(520,0)"><use data-c="1D461" xlink:href="#MJX-50-TEX-I-1D461"></use></g></g><rect width="1081" height="60" x="120" y="220"></rect></g><g data-mml-node="mo" transform="translate(1321,0)"><use data-c="28" xlink:href="#MJX-50-TEX-N-28"></use></g><g data-mml-node="msub" transform="translate(1710,0)"><g data-mml-node="mi"><use data-c="1D439" xlink:href="#MJX-50-TEX-I-1D439"></use></g><g data-mml-node="mi" transform="translate(676,-150) scale(0.707)"><use data-c="1D43B" xlink:href="#MJX-50-TEX-I-1D43B"></use></g></g><g data-mml-node="mo" transform="translate(3286.1,0)"><use data-c="2212" xlink:href="#MJX-50-TEX-N-2212"></use></g><g data-mml-node="msub" transform="translate(4286.4,0)"><g data-mml-node="mi"><use data-c="1D439" xlink:href="#MJX-50-TEX-I-1D439"></use></g><g data-mml-node="mi" transform="translate(676,-150) scale(0.707)"><use data-c="1D43F" xlink:href="#MJX-50-TEX-I-1D43F"></use></g></g><g data-mml-node="mo" transform="translate(5493.9,0)"><use data-c="29" xlink:href="#MJX-50-TEX-N-29"></use></g><g data-mml-node="mo" transform="translate(6160.7,0)"><use data-c="3E" xlink:href="#MJX-50-TEX-N-3E"></use></g><g data-mml-node="mn" transform="translate(7216.5,0)"><use data-c="30" xlink:href="#MJX-50-TEX-N-30"></use></g><g data-mml-node="mstyle" transform="translate(7716.5,0)"><g data-mml-node="mspace"></g></g><g data-mml-node="mtext" transform="translate(8716.5,0)"><use data-c="61" xlink:href="#MJX-50-TEX-N-61"></use><use data-c="6E" xlink:href="#MJX-50-TEX-N-6E" transform="translate(500,0)"></use><use data-c="64" xlink:href="#MJX-50-TEX-N-64" transform="translate(1056,0)"></use></g><g data-mml-node="mstyle" transform="translate(10328.5,0)"><g data-mml-node="mspace"></g></g><g data-mml-node="mfrac" transform="translate(11328.5,0)"><g data-mml-node="msup" transform="translate(400.5,676)"><g data-mml-node="mi"><use data-c="1D451" xlink:href="#MJX-50-TEX-I-1D451"></use></g><g data-mml-node="mn" transform="translate(553,363) scale(0.707)"><use data-c="32" xlink:href="#MJX-50-TEX-N-32"></use></g></g><g data-mml-node="mrow" transform="translate(220,-719.9)"><g data-mml-node="mi"><use data-c="1D451" xlink:href="#MJX-50-TEX-I-1D451"></use></g><g data-mml-node="msup" transform="translate(520,0)"><g data-mml-node="mi"><use data-c="1D461" xlink:href="#MJX-50-TEX-I-1D461"></use></g><g data-mml-node="mn" transform="translate(394,289) scale(0.707)"><use data-c="32" xlink:href="#MJX-50-TEX-N-32"></use></g></g></g><rect width="1517.6" height="60" x="120" y="220"></rect></g><g data-mml-node="mo" transform="translate(13086,0)"><use data-c="28" xlink:href="#MJX-50-TEX-N-28"></use></g><g data-mml-node="msub" transform="translate(13475,0)"><g data-mml-node="mi"><use data-c="1D439" xlink:href="#MJX-50-TEX-I-1D439"></use></g><g data-mml-node="mi" transform="translate(676,-150) scale(0.707)"><use data-c="1D43B" xlink:href="#MJX-50-TEX-I-1D43B"></use></g></g><g data-mml-node="mo" transform="translate(15051.1,0)"><use data-c="2212" xlink:href="#MJX-50-TEX-N-2212"></use></g><g data-mml-node="msub" transform="translate(16051.4,0)"><g data-mml-node="mi"><use data-c="1D439" xlink:href="#MJX-50-TEX-I-1D439"></use></g><g data-mml-node="mi" transform="translate(676,-150) scale(0.707)"><use data-c="1D43F" xlink:href="#MJX-50-TEX-I-1D43F"></use></g></g><g data-mml-node="mo" transform="translate(17258.9,0)"><use data-c="29" xlink:href="#MJX-50-TEX-N-29"></use></g><g data-mml-node="mo" transform="translate(17925.7,0)"><use data-c="3E" xlink:href="#MJX-50-TEX-N-3E"></use></g><g data-mml-node="mn" transform="translate(18981.5,0)"><use data-c="30" xlink:href="#MJX-50-TEX-N-30"></use></g><g data-mml-node="mstyle" transform="translate(19481.5,0)"><g data-mml-node="mspace"></g></g><g data-mml-node="mo" transform="translate(21481.5,0)"><use data-c="28" xlink:href="#MJX-50-TEX-N-28"></use></g><g data-mml-node="mn" transform="translate(21870.5,0)"><use data-c="31" xlink:href="#MJX-50-TEX-N-31"></use><use data-c="36" xlink:href="#MJX-50-TEX-N-36" transform="translate(500,0)"></use></g><g data-mml-node="mo" transform="translate(22870.5,0)"><use data-c="2C" xlink:href="#MJX-50-TEX-N-2C"></use></g><g data-mml-node="mn" transform="translate(23315.1,0)"><use data-c="31" xlink:href="#MJX-50-TEX-N-31"></use><use data-c="36" xlink:href="#MJX-50-TEX-N-36" transform="translate(500,0)"></use></g><g data-mml-node="mi" transform="translate(24315.1,0)"><use data-c="1D44E" xlink:href="#MJX-50-TEX-I-1D44E"></use></g><g data-mml-node="mo" transform="translate(24844.1,0)"><use data-c="29" xlink:href="#MJX-50-TEX-N-29"></use></g></g></g></svg>