<svg style="vertical-align: -2.748ex;" xmlns="http://www.w3.org/2000/svg" width="30.02ex" height="5.648ex" role="img" focusable="false" viewBox="-165.7 -1115.7 13268.8 2496.3" xmlns:xlink="http://www.w3.org/1999/xlink"><rect id="equation-background" x="-165.7" y="-1115.7" width="13268.8" height="2496.3" fill="white" /><defs><path id="MJX-3-TEX-I-1D442" d="M740 435Q740 320 676 213T511 42T304 -22Q207 -22 138 35T51 201Q50 209 50 244Q50 346 98 438T227 601Q351 704 476 704Q514 704 524 703Q621 689 680 617T740 435ZM637 476Q637 565 591 615T476 665Q396 665 322 605Q242 542 200 428T157 216Q157 126 200 73T314 19Q404 19 485 98T608 313Q637 408 637 476Z"></path><path id="MJX-3-TEX-N-3D" d="M56 347Q56 360 70 367H707Q722 359 722 347Q722 336 708 328L390 327H72Q56 332 56 347ZM56 153Q56 168 72 173H708Q722 163 722 153Q722 140 707 133H70Q56 140 56 153Z"></path><path id="MJX-3-TEX-LO-2211" d="M60 948Q63 950 665 950H1267L1325 815Q1384 677 1388 669H1348L1341 683Q1320 724 1285 761Q1235 809 1174 838T1033 881T882 898T699 902H574H543H251L259 891Q722 258 724 252Q725 250 724 246Q721 243 460 -56L196 -356Q196 -357 407 -357Q459 -357 548 -357T676 -358Q812 -358 896 -353T1063 -332T1204 -283T1307 -196Q1328 -170 1348 -124H1388Q1388 -125 1381 -145T1356 -210T1325 -294L1267 -449L666 -450Q64 -450 61 -448Q55 -446 55 -439Q55 -437 57 -433L590 177Q590 178 557 222T452 366T322 544L56 909L55 924Q55 945 60 948Z"></path><path id="MJX-3-TEX-I-1D451" d="M366 683Q367 683 438 688T511 694Q523 694 523 686Q523 679 450 384T375 83T374 68Q374 26 402 26Q411 27 422 35Q443 55 463 131Q469 151 473 152Q475 153 483 153H487H491Q506 153 506 145Q506 140 503 129Q490 79 473 48T445 8T417 -8Q409 -10 393 -10Q359 -10 336 5T306 36L300 51Q299 52 296 50Q294 48 292 46Q233 -10 172 -10Q117 -10 75 30T33 157Q33 205 53 255T101 341Q148 398 195 420T280 442Q336 442 364 400Q369 394 369 396Q370 400 396 505T424 616Q424 629 417 632T378 637H357Q351 643 351 645T353 664Q358 683 366 683ZM352 326Q329 405 277 405Q242 405 210 374T160 293Q131 214 119 129Q119 126 119 118T118 106Q118 61 136 44T179 26Q233 26 290 98L298 109L352 326Z"></path><path id="MJX-3-TEX-I-1D440" d="M289 629Q289 635 232 637Q208 637 201 638T194 648Q194 649 196 659Q197 662 198 666T199 671T201 676T203 679T207 681T212 683T220 683T232 684Q238 684 262 684T307 683Q386 683 398 683T414 678Q415 674 451 396L487 117L510 154Q534 190 574 254T662 394Q837 673 839 675Q840 676 842 678T846 681L852 683H948Q965 683 988 683T1017 684Q1051 684 1051 673Q1051 668 1048 656T1045 643Q1041 637 1008 637Q968 636 957 634T939 623Q936 618 867 340T797 59Q797 55 798 54T805 50T822 48T855 46H886Q892 37 892 35Q892 19 885 5Q880 0 869 0Q864 0 828 1T736 2Q675 2 644 2T609 1Q592 1 592 11Q592 13 594 25Q598 41 602 43T625 46Q652 46 685 49Q699 52 704 61Q706 65 742 207T813 490T848 631L654 322Q458 10 453 5Q451 4 449 3Q444 0 433 0Q418 0 415 7Q413 11 374 317L335 624L267 354Q200 88 200 79Q206 46 272 46H282Q288 41 289 37T286 19Q282 3 278 1Q274 0 267 0Q265 0 255 0T221 1T157 2Q127 2 95 1T58 0Q43 0 39 2T35 11Q35 13 38 25T43 40Q45 46 65 46Q135 46 154 86Q158 92 223 354T289 629Z"></path><path id="MJX-3-TEX-I-1D460" d="M131 289Q131 321 147 354T203 415T300 442Q362 442 390 415T419 355Q419 323 402 308T364 292Q351 292 340 300T328 326Q328 342 337 354T354 372T367 378Q368 378 368 379Q368 382 361 388T336 399T297 405Q249 405 227 379T204 326Q204 301 223 291T278 274T330 259Q396 230 396 163Q396 135 385 107T352 51T289 7T195 -10Q118 -10 86 19T53 87Q53 126 74 143T118 160Q133 160 146 151T160 120Q160 94 142 76T111 58Q109 57 108 57T107 55Q108 52 115 47T146 34T201 27Q237 27 263 38T301 66T318 97T323 122Q323 150 302 164T254 181T195 196T148 231Q131 256 131 289Z"></path><path id="MJX-3-TEX-N-28" d="M94 250Q94 319 104 381T127 488T164 576T202 643T244 695T277 729T302 750H315H319Q333 750 333 741Q333 738 316 720T275 667T226 581T184 443T167 250T184 58T225 -81T274 -167T316 -220T333 -241Q333 -250 318 -250H315H302L274 -226Q180 -141 137 -14T94 250Z"></path><path id="MJX-3-TEX-N-29" d="M60 749L64 750Q69 750 74 750H86L114 726Q208 641 251 514T294 250Q294 182 284 119T261 12T224 -76T186 -143T145 -194T113 -227T90 -246Q87 -249 86 -250H74Q66 -250 63 -250T58 -247T55 -238Q56 -237 66 -225Q221 -64 221 250T66 725Q56 737 55 738Q55 746 60 749Z"></path><path id="MJX-3-TEX-N-D7" d="M630 29Q630 9 609 9Q604 9 587 25T493 118L389 222L284 117Q178 13 175 11Q171 9 168 9Q160 9 154 15T147 29Q147 36 161 51T255 146L359 250L255 354Q174 435 161 449T147 471Q147 480 153 485T168 490Q173 490 175 489Q178 487 284 383L389 278L493 382Q570 459 587 475T609 491Q630 491 630 471Q630 464 620 453T522 355L418 250L522 145Q606 61 618 48T630 29Z"></path><path id="MJX-3-TEX-I-1D439" d="M48 1Q31 1 31 11Q31 13 34 25Q38 41 42 43T65 46Q92 46 125 49Q139 52 144 61Q146 66 215 342T285 622Q285 629 281 629Q273 632 228 634H197Q191 640 191 642T193 659Q197 676 203 680H742Q749 676 749 669Q749 664 736 557T722 447Q720 440 702 440H690Q683 445 683 453Q683 454 686 477T689 530Q689 560 682 579T663 610T626 626T575 633T503 634H480Q398 633 393 631Q388 629 386 623Q385 622 352 492L320 363H375Q378 363 398 363T426 364T448 367T472 374T489 386Q502 398 511 419T524 457T529 475Q532 480 548 480H560Q567 475 567 470Q567 467 536 339T502 207Q500 200 482 200H470Q463 206 463 212Q463 215 468 234T473 274Q473 303 453 310T364 317H309L277 190Q245 66 245 60Q245 46 334 46H359Q365 40 365 39T363 19Q359 6 353 0H336Q295 2 185 2Q120 2 86 2T48 1Z"></path><path id="MJX-3-TEX-N-32" d="M109 429Q82 429 66 447T50 491Q50 562 103 614T235 666Q326 666 387 610T449 465Q449 422 429 383T381 315T301 241Q265 210 201 149L142 93L218 92Q375 92 385 97Q392 99 409 186V189H449V186Q448 183 436 95T421 3V0H50V19V31Q50 38 56 46T86 81Q115 113 136 137Q145 147 170 174T204 211T233 244T261 278T284 308T305 340T320 369T333 401T340 431T343 464Q343 527 309 573T212 619Q179 619 154 602T119 569T109 550Q109 549 114 549Q132 549 151 535T170 489Q170 464 154 447T109 429Z"></path></defs><g stroke="currentColor" fill="currentColor" stroke-width="0" transform="scale(1,-1)"><g data-mml-node="math"><g data-mml-node="mi"><use data-c="1D442" xlink:href="#MJX-3-TEX-I-1D442"></use></g><g data-mml-node="mo" transform="translate(1040.8,0)"><use data-c="3D" xlink:href="#MJX-3-TEX-N-3D"></use></g><g data-mml-node="munder" transform="translate(2096.6,0)"><g data-mml-node="mo"><use data-c="2211" xlink:href="#MJX-3-TEX-LO-2211"></use></g><g data-mml-node="TeXAtom" transform="translate(538.2,-1107.7) scale(0.707)" data-mjx-texclass="ORD"><g data-mml-node="mi"><use data-c="1D451" xlink:href="#MJX-3-TEX-I-1D451"></use></g></g></g><g data-mml-node="msub" transform="translate(3707.2,0)"><g data-mml-node="mi"><use data-c="1D440" xlink:href="#MJX-3-TEX-I-1D440"></use></g><g data-mml-node="mi" transform="translate(1003,-150) scale(0.707)"><use data-c="1D460" xlink:href="#MJX-3-TEX-I-1D460"></use></g></g><g data-mml-node="mo" transform="translate(5091.9,0)"><use data-c="28" xlink:href="#MJX-3-TEX-N-28"></use></g><g data-mml-node="mi" transform="translate(5480.9,0)"><use data-c="1D451" xlink:href="#MJX-3-TEX-I-1D451"></use></g><g data-mml-node="mo" transform="translate(6000.9,0)"><use data-c="29" xlink:href="#MJX-3-TEX-N-29"></use></g><g data-mml-node="mo" transform="translate(6612.1,0)"><use data-c="D7" xlink:href="#MJX-3-TEX-N-D7"></use></g><g data-mml-node="mi" transform="translate(7612.3,0)"><use data-c="1D439" xlink:href="#MJX-3-TEX-I-1D439"></use></g><g data-mml-node="mo" transform="translate(8361.3,0)"><use data-c="28" xlink:href="#MJX-3-TEX-N-28"></use></g><g data-mml-node="mi" transform="translate(8750.3,0)"><use data-c="1D451" xlink:href="#MJX-3-TEX-I-1D451"></use></g><g data-mml-node="mo" transform="translate(9270.3,0)"><use data-c="29" xlink:href="#MJX-3-TEX-N-29"></use></g><g data-mml-node="mstyle" transform="translate(9659.3,0)"><g data-mml-node="mspace"></g></g><g data-mml-node="mo" transform="translate(11659.3,0)"><use data-c="28" xlink:href="#MJX-3-TEX-N-28"></use></g><g data-mml-node="mn" transform="translate(12048.3,0)"><use data-c="32" xlink:href="#MJX-3-TEX-N-32"></use></g><g data-mml-node="mo" transform="translate(12548.3,0)"><use data-c="29" xlink:href="#MJX-3-TEX-N-29"></use></g></g></g></svg>