<svg style="vertical-align: -3.332ex;" xmlns="http://www.w3.org/2000/svg" width="74.763ex" height="8.546ex" role="img" focusable="false" viewBox="-165.7 -2138.5 33045.2 3777.2" xmlns:xlink="http://www.w3.org/1999/xlink"><rect id="equation-background" x="-165.7" y="-2138.5" width="33045.2" height="3777.2" fill="white" /><defs><path id="MJX-8-TEX-I-1D449" d="M52 648Q52 670 65 683H76Q118 680 181 680Q299 680 320 683H330Q336 677 336 674T334 656Q329 641 325 637H304Q282 635 274 635Q245 630 242 620Q242 618 271 369T301 118L374 235Q447 352 520 471T595 594Q599 601 599 609Q599 633 555 637Q537 637 537 648Q537 649 539 661Q542 675 545 679T558 683Q560 683 570 683T604 682T668 681Q737 681 755 683H762Q769 676 769 672Q769 655 760 640Q757 637 743 637Q730 636 719 635T698 630T682 623T670 615T660 608T652 599T645 592L452 282Q272 -9 266 -16Q263 -18 259 -21L241 -22H234Q216 -22 216 -15Q213 -9 177 305Q139 623 138 626Q133 637 76 637H59Q52 642 52 648Z"></path><path id="MJX-8-TEX-N-28" d="M94 250Q94 319 104 381T127 488T164 576T202 643T244 695T277 729T302 750H315H319Q333 750 333 741Q333 738 316 720T275 667T226 581T184 443T167 250T184 58T225 -81T274 -167T316 -220T333 -241Q333 -250 318 -250H315H302L274 -226Q180 -141 137 -14T94 250Z"></path><path id="MJX-8-TEX-I-1D439" d="M48 1Q31 1 31 11Q31 13 34 25Q38 41 42 43T65 46Q92 46 125 49Q139 52 144 61Q146 66 215 342T285 622Q285 629 281 629Q273 632 228 634H197Q191 640 191 642T193 659Q197 676 203 680H742Q749 676 749 669Q749 664 736 557T722 447Q720 440 702 440H690Q683 445 683 453Q683 454 686 477T689 530Q689 560 682 579T663 610T626 626T575 633T503 634H480Q398 633 393 631Q388 629 386 623Q385 622 352 492L320 363H375Q378 363 398 363T426 364T448 367T472 374T489 386Q502 398 511 419T524 457T529 475Q532 480 548 480H560Q567 475 567 470Q567 467 536 339T502 207Q500 200 482 200H470Q463 206 463 212Q463 215 468 234T473 274Q473 303 453 310T364 317H309L277 190Q245 66 245 60Q245 46 334 46H359Q365 40 365 39T363 19Q359 6 353 0H336Q295 2 185 2Q120 2 86 2T48 1Z"></path><path id="MJX-8-TEX-N-29" d="M60 749L64 750Q69 750 74 750H86L114 726Q208 641 251 514T294 250Q294 182 284 119T261 12T224 -76T186 -143T145 -194T113 -227T90 -246Q87 -249 86 -250H74Q66 -250 63 -250T58 -247T55 -238Q56 -237 66 -225Q221 -64 221 250T66 725Q56 737 55 738Q55 746 60 749Z"></path><path id="MJX-8-TEX-N-2192" d="M56 237T56 250T70 270H835Q719 357 692 493Q692 494 692 496T691 499Q691 511 708 511H711Q720 511 723 510T729 506T732 497T735 481T743 456Q765 389 816 336T935 261Q944 258 944 250Q944 244 939 241T915 231T877 212Q836 186 806 152T761 85T740 35T732 4Q730 -6 727 -8T711 -11Q691 -11 691 0Q691 7 696 25Q728 151 835 230H70Q56 237 56 250Z"></path><path id="MJX-8-TEX-S4-23A7" d="M712 899L718 893V876V865Q718 854 704 846Q627 793 577 710T510 525Q510 524 509 521Q505 493 504 349Q504 345 504 334Q504 277 504 240Q504 -2 503 -4Q502 -8 494 -9T444 -10Q392 -10 390 -9Q387 -8 386 -5Q384 5 384 230Q384 262 384 312T383 382Q383 481 392 535T434 656Q510 806 664 892L677 899H712Z"></path><path id="MJX-8-TEX-S4-23A9" d="M718 -893L712 -899H677L666 -893Q542 -825 468 -714T385 -476Q384 -466 384 -282Q384 3 385 5L389 9Q392 10 444 10Q486 10 494 9T503 4Q504 2 504 -239V-310V-366Q504 -470 508 -513T530 -609Q546 -657 569 -698T617 -767T661 -812T699 -843T717 -856T718 -876V-893Z"></path><path id="MJX-8-TEX-S4-23A8" d="M389 1159Q391 1160 455 1160Q496 1160 498 1159Q501 1158 502 1155Q504 1145 504 924Q504 691 503 682Q494 549 425 439T243 259L229 250L243 241Q349 175 421 66T503 -182Q504 -191 504 -424Q504 -600 504 -629T499 -659H498Q496 -660 444 -660T390 -659Q387 -658 386 -655Q384 -645 384 -425V-282Q384 -176 377 -116T342 10Q325 54 301 92T255 155T214 196T183 222T171 232Q170 233 170 250T171 268Q171 269 191 284T240 331T300 407T354 524T383 679Q384 691 384 925Q384 1152 385 1155L389 1159Z"></path><path id="MJX-8-TEX-S4-23AA" d="M384 150V266Q384 304 389 309Q391 310 455 310Q496 310 498 309Q502 308 503 298Q504 283 504 150Q504 32 504 12T499 -9H498Q496 -10 444 -10T390 -9Q386 -8 385 2Q384 17 384 150Z"></path><path id="MJX-8-TEX-N-68" d="M41 46H55Q94 46 102 60V68Q102 77 102 91T102 124T102 167T103 217T103 272T103 329Q103 366 103 407T103 482T102 542T102 586T102 603Q99 622 88 628T43 637H25V660Q25 683 27 683L37 684Q47 685 66 686T103 688Q120 689 140 690T170 693T181 694H184V367Q244 442 328 442Q451 442 463 329Q464 322 464 190V104Q464 66 466 59T477 49Q498 46 526 46H542V0H534L510 1Q487 2 460 2T422 3Q319 3 310 0H302V46H318Q379 46 379 62Q380 64 380 200Q379 335 378 343Q372 371 358 385T334 402T308 404Q263 404 229 370Q202 343 195 315T187 232V168V108Q187 78 188 68T191 55T200 49Q221 46 249 46H265V0H257L234 1Q210 2 183 2T145 3Q42 3 33 0H25V46H41Z"></path><path id="MJX-8-TEX-N-69" d="M69 609Q69 637 87 653T131 669Q154 667 171 652T188 609Q188 579 171 564T129 549Q104 549 87 564T69 609ZM247 0Q232 3 143 3Q132 3 106 3T56 1L34 0H26V46H42Q70 46 91 49Q100 53 102 60T104 102V205V293Q104 345 102 359T88 378Q74 385 41 385H30V408Q30 431 32 431L42 432Q52 433 70 434T106 436Q123 437 142 438T171 441T182 442H185V62Q190 52 197 50T232 46H255V0H247Z"></path><path id="MJX-8-TEX-N-67" d="M329 409Q373 453 429 453Q459 453 472 434T485 396Q485 382 476 371T449 360Q416 360 412 390Q410 404 415 411Q415 412 416 414V415Q388 412 363 393Q355 388 355 386Q355 385 359 381T368 369T379 351T388 325T392 292Q392 230 343 187T222 143Q172 143 123 171Q112 153 112 133Q112 98 138 81Q147 75 155 75T227 73Q311 72 335 67Q396 58 431 26Q470 -13 470 -72Q470 -139 392 -175Q332 -206 250 -206Q167 -206 107 -175Q29 -140 29 -75Q29 -39 50 -15T92 18L103 24Q67 55 67 108Q67 155 96 193Q52 237 52 292Q52 355 102 398T223 442Q274 442 318 416L329 409ZM299 343Q294 371 273 387T221 404Q192 404 171 388T145 343Q142 326 142 292Q142 248 149 227T179 192Q196 182 222 182Q244 182 260 189T283 207T294 227T299 242Q302 258 302 292T299 343ZM403 -75Q403 -50 389 -34T348 -11T299 -2T245 0H218Q151 0 138 -6Q118 -15 107 -34T95 -74Q95 -84 101 -97T122 -127T170 -155T250 -167Q319 -167 361 -139T403 -75Z"></path><path id="MJX-8-TEX-N-22C5" d="M78 250Q78 274 95 292T138 310Q162 310 180 294T199 251Q199 226 182 208T139 190T96 207T78 250Z"></path><path id="MJX-8-TEX-N-66" d="M273 0Q255 3 146 3Q43 3 34 0H26V46H42Q70 46 91 49Q99 52 103 60Q104 62 104 224V385H33V431H104V497L105 564L107 574Q126 639 171 668T266 704Q267 704 275 704T289 705Q330 702 351 679T372 627Q372 604 358 590T321 576T284 590T270 627Q270 647 288 667H284Q280 668 273 668Q245 668 223 647T189 592Q183 572 182 497V431H293V385H185V225Q185 63 186 61T189 57T194 54T199 51T206 49T213 48T222 47T231 47T241 46T251 46H282V0H273Z"></path><path id="MJX-8-TEX-N-A0" d=""></path><path id="MJX-8-TEX-N-3E" d="M84 520Q84 528 88 533T96 539L99 540Q106 540 253 471T544 334L687 265Q694 260 694 250T687 235Q685 233 395 96L107 -40H101Q83 -38 83 -20Q83 -19 83 -17Q82 -10 98 -1Q117 9 248 71Q326 108 378 132L626 250L378 368Q90 504 86 509Q84 513 84 520Z"></path><path id="MJX-8-TEX-N-74" d="M27 422Q80 426 109 478T141 600V615H181V431H316V385H181V241Q182 116 182 100T189 68Q203 29 238 29Q282 29 292 100Q293 108 293 146V181H333V146V134Q333 57 291 17Q264 -10 221 -10Q187 -10 162 2T124 33T105 68T98 100Q97 107 97 248V385H18V422H27Z"></path><path id="MJX-8-TEX-N-72" d="M36 46H50Q89 46 97 60V68Q97 77 97 91T98 122T98 161T98 203Q98 234 98 269T98 328L97 351Q94 370 83 376T38 385H20V408Q20 431 22 431L32 432Q42 433 60 434T96 436Q112 437 131 438T160 441T171 442H174V373Q213 441 271 441H277Q322 441 343 419T364 373Q364 352 351 337T313 322Q288 322 276 338T263 372Q263 381 265 388T270 400T273 405Q271 407 250 401Q234 393 226 386Q179 341 179 207V154Q179 141 179 127T179 101T180 81T180 66V61Q181 59 183 57T188 54T193 51T200 49T207 48T216 47T225 47T235 46T245 46H276V0H267Q249 3 140 3Q37 3 28 0H20V46H36Z"></path><path id="MJX-8-TEX-N-65" d="M28 218Q28 273 48 318T98 391T163 433T229 448Q282 448 320 430T378 380T406 316T415 245Q415 238 408 231H126V216Q126 68 226 36Q246 30 270 30Q312 30 342 62Q359 79 369 104L379 128Q382 131 395 131H398Q415 131 415 121Q415 117 412 108Q393 53 349 21T250 -11Q155 -11 92 58T28 218ZM333 275Q322 403 238 411H236Q228 411 220 410T195 402T166 381T143 340T127 274V267H333V275Z"></path><path id="MJX-8-TEX-N-73" d="M295 316Q295 356 268 385T190 414Q154 414 128 401Q98 382 98 349Q97 344 98 336T114 312T157 287Q175 282 201 278T245 269T277 256Q294 248 310 236T342 195T359 133Q359 71 321 31T198 -10H190Q138 -10 94 26L86 19L77 10Q71 4 65 -1L54 -11H46H42Q39 -11 33 -5V74V132Q33 153 35 157T45 162H54Q66 162 70 158T75 146T82 119T101 77Q136 26 198 26Q295 26 295 104Q295 133 277 151Q257 175 194 187T111 210Q75 227 54 256T33 318Q33 357 50 384T93 424T143 442T187 447H198Q238 447 268 432L283 424L292 431Q302 440 314 448H322H326Q329 448 335 442V310L329 304H301Q295 310 295 316Z"></path><path id="MJX-8-TEX-N-6F" d="M28 214Q28 309 93 378T250 448Q340 448 405 380T471 215Q471 120 407 55T250 -10Q153 -10 91 57T28 214ZM250 30Q372 30 372 193V225V250Q372 272 371 288T364 326T348 362T317 390T268 410Q263 411 252 411Q222 411 195 399Q152 377 139 338T126 246V226Q126 130 145 91Q177 30 250 30Z"></path><path id="MJX-8-TEX-N-6C" d="M42 46H56Q95 46 103 60V68Q103 77 103 91T103 124T104 167T104 217T104 272T104 329Q104 366 104 407T104 482T104 542T103 586T103 603Q100 622 89 628T44 637H26V660Q26 683 28 683L38 684Q48 685 67 686T104 688Q121 689 141 690T171 693T182 694H185V379Q185 62 186 60Q190 52 198 49Q219 46 247 46H263V0H255L232 1Q209 2 183 2T145 3T107 3T57 1L34 0H26V46H42Z"></path><path id="MJX-8-TEX-N-64" d="M376 495Q376 511 376 535T377 568Q377 613 367 624T316 637H298V660Q298 683 300 683L310 684Q320 685 339 686T376 688Q393 689 413 690T443 693T454 694H457V390Q457 84 458 81Q461 61 472 55T517 46H535V0Q533 0 459 -5T380 -11H373V44L365 37Q307 -11 235 -11Q158 -11 96 50T34 215Q34 315 97 378T244 442Q319 442 376 393V495ZM373 342Q328 405 260 405Q211 405 173 369Q146 341 139 305T131 211Q131 155 138 120T173 59Q203 26 251 26Q322 26 373 103V342Z"></path><path id="MJX-8-TEX-N-6A" d="M98 609Q98 637 116 653T160 669Q183 667 200 652T217 609Q217 579 200 564T158 549Q133 549 116 564T98 609ZM28 -163Q58 -168 64 -168Q124 -168 135 -77Q137 -65 137 141T136 353Q132 371 120 377T72 385H52V408Q52 431 54 431L58 432Q62 432 70 432T87 433T108 434T133 436Q151 437 171 438T202 441T214 442H218V184Q217 -36 217 -59T211 -98Q195 -145 153 -175T58 -205Q9 -205 -23 -179T-55 -117Q-55 -94 -40 -79T-2 -64T36 -79T52 -118Q52 -143 28 -163Z"></path><path id="MJX-8-TEX-N-75" d="M383 58Q327 -10 256 -10H249Q124 -10 105 89Q104 96 103 226Q102 335 102 348T96 369Q86 385 36 385H25V408Q25 431 27 431L38 432Q48 433 67 434T105 436Q122 437 142 438T172 441T184 442H187V261Q188 77 190 64Q193 49 204 40Q224 26 264 26Q290 26 311 35T343 58T363 90T375 120T379 144Q379 145 379 161T380 201T380 248V315Q380 361 370 372T320 385H302V431Q304 431 378 436T457 442H464V264Q464 84 465 81Q468 61 479 55T524 46H542V0Q540 0 467 -5T390 -11H383V58Z"></path><path id="MJX-8-TEX-N-6D" d="M41 46H55Q94 46 102 60V68Q102 77 102 91T102 122T103 161T103 203Q103 234 103 269T102 328V351Q99 370 88 376T43 385H25V408Q25 431 27 431L37 432Q47 433 65 434T102 436Q119 437 138 438T167 441T178 442H181V402Q181 364 182 364T187 369T199 384T218 402T247 421T285 437Q305 442 336 442Q351 442 364 440T387 434T406 426T421 417T432 406T441 395T448 384T452 374T455 366L457 361L460 365Q463 369 466 373T475 384T488 397T503 410T523 422T546 432T572 439T603 442Q729 442 740 329Q741 322 741 190V104Q741 66 743 59T754 49Q775 46 803 46H819V0H811L788 1Q764 2 737 2T699 3Q596 3 587 0H579V46H595Q656 46 656 62Q657 64 657 200Q656 335 655 343Q649 371 635 385T611 402T585 404Q540 404 506 370Q479 343 472 315T464 232V168V108Q464 78 465 68T468 55T477 49Q498 46 526 46H542V0H534L510 1Q487 2 460 2T422 3Q319 3 310 0H302V46H318Q379 46 379 62Q380 64 380 200Q379 335 378 343Q372 371 358 385T334 402T308 404Q263 404 229 370Q202 343 195 315T187 232V168V108Q187 78 188 68T191 55T200 49Q221 46 249 46H265V0H257L234 1Q210 2 183 2T145 3Q42 3 33 0H25V46H41Z"></path><path id="MJX-8-TEX-N-6E" d="M41 46H55Q94 46 102 60V68Q102 77 102 91T102 122T103 161T103 203Q103 234 103 269T102 328V351Q99 370 88 376T43 385H25V408Q25 431 27 431L37 432Q47 433 65 434T102 436Q119 437 138 438T167 441T178 442H181V402Q181 364 182 364T187 369T199 384T218 402T247 421T285 437Q305 442 336 442Q450 438 463 329Q464 322 464 190V104Q464 66 466 59T477 49Q498 46 526 46H542V0H534L510 1Q487 2 460 2T422 3Q319 3 310 0H302V46H318Q379 46 379 62Q380 64 380 200Q379 335 378 343Q372 371 358 385T334 402T308 404Q263 404 229 370Q202 343 195 315T187 232V168V108Q187 78 188 68T191 55T200 49Q221 46 249 46H265V0H257L234 1Q210 2 183 2T145 3Q42 3 33 0H25V46H41Z"></path><path id="MJX-8-TEX-N-20" d=""></path><path id="MJX-8-TEX-N-61" d="M137 305T115 305T78 320T63 359Q63 394 97 421T218 448Q291 448 336 416T396 340Q401 326 401 309T402 194V124Q402 76 407 58T428 40Q443 40 448 56T453 109V145H493V106Q492 66 490 59Q481 29 455 12T400 -6T353 12T329 54V58L327 55Q325 52 322 49T314 40T302 29T287 17T269 6T247 -2T221 -8T190 -11Q130 -11 82 20T34 107Q34 128 41 147T68 188T116 225T194 253T304 268H318V290Q318 324 312 340Q290 411 215 411Q197 411 181 410T156 406T148 403Q170 388 170 359Q170 334 154 320ZM126 106Q126 75 150 51T209 26Q247 26 276 49T315 109Q317 116 318 175Q318 233 317 233Q309 233 296 232T251 223T193 203T147 166T126 106Z"></path><path id="MJX-8-TEX-N-79" d="M69 -66Q91 -66 104 -80T118 -116Q118 -134 109 -145T91 -160Q84 -163 97 -166Q104 -168 111 -168Q131 -168 148 -159T175 -138T197 -106T213 -75T225 -43L242 0L170 183Q150 233 125 297Q101 358 96 368T80 381Q79 382 78 382Q66 385 34 385H19V431H26L46 430Q65 430 88 429T122 428Q129 428 142 428T171 429T200 430T224 430L233 431H241V385H232Q183 385 185 366L286 112Q286 113 332 227L376 341V350Q376 365 366 373T348 383T334 385H331V431H337H344Q351 431 361 431T382 430T405 429T422 429Q477 429 503 431H508V385H497Q441 380 422 345Q420 343 378 235T289 9T227 -131Q180 -204 113 -204Q69 -204 44 -177T19 -116Q19 -89 35 -78T69 -66Z"></path><path id="MJX-8-TEX-N-77" d="M90 368Q84 378 76 380T40 385H18V431H24L43 430Q62 430 84 429T116 428Q206 428 221 431H229V385H215Q177 383 177 368Q177 367 221 239L265 113L339 328L333 345Q323 374 316 379Q308 384 278 385H258V431H264Q270 428 348 428Q439 428 454 431H461V385H452Q404 385 404 369Q404 366 418 324T449 234T481 143L496 100L537 219Q579 341 579 347Q579 363 564 373T530 385H522V431H529Q541 428 624 428Q692 428 698 431H703V385H697Q696 385 691 385T682 384Q635 377 619 334L559 161Q546 124 528 71Q508 12 503 1T487 -11H479Q460 -11 456 -4Q455 -3 407 133L361 267Q359 263 266 -4Q261 -11 243 -11H238Q225 -11 220 -3L90 368Z"></path><path id="MJX-8-TEX-N-63" d="M370 305T349 305T313 320T297 358Q297 381 312 396Q317 401 317 402T307 404Q281 408 258 408Q209 408 178 376Q131 329 131 219Q131 137 162 90Q203 29 272 29Q313 29 338 55T374 117Q376 125 379 127T395 129H409Q415 123 415 120Q415 116 411 104T395 71T366 33T318 2T249 -11Q163 -11 99 53T34 214Q34 318 99 383T250 448T370 421T404 357Q404 334 387 320Z"></path><path id="MJX-8-TEX-N-6B" d="M36 46H50Q89 46 97 60V68Q97 77 97 91T97 124T98 167T98 217T98 272T98 329Q98 366 98 407T98 482T98 542T97 586T97 603Q94 622 83 628T38 637H20V660Q20 683 22 683L32 684Q42 685 61 686T98 688Q115 689 135 690T165 693T176 694H179V463L180 233L240 287Q300 341 304 347Q310 356 310 364Q310 383 289 385H284V431H293Q308 428 412 428Q475 428 484 431H489V385H476Q407 380 360 341Q286 278 286 274Q286 273 349 181T420 79Q434 60 451 53T500 46H511V0H505Q496 3 418 3Q322 3 307 0H299V46H306Q330 48 330 65Q330 72 326 79Q323 84 276 153T228 222L176 176V120V84Q176 65 178 59T189 49Q210 46 238 46H254V0H246Q231 3 137 3T28 0H20V46H36Z"></path><path id="MJX-8-TEX-N-4C" d="M128 622Q121 629 117 631T101 634T58 637H25V683H36Q48 680 182 680Q324 680 348 683H360V637H333Q273 637 258 635T233 622L232 342V129Q232 57 237 52Q243 47 313 47Q384 47 410 53Q470 70 498 110T536 221Q536 226 537 238T540 261T542 272T562 273H582V268Q580 265 568 137T554 5V0H25V46H58Q100 47 109 49T128 61V622Z"></path><path id="MJX-8-TEX-N-4D" d="M132 622Q125 629 121 631T105 634T62 637H29V683H135Q221 683 232 682T249 675Q250 674 354 398L458 124L562 398Q666 674 668 675Q671 681 683 682T781 683H887V637H854Q814 636 803 634T785 622V61Q791 51 802 49T854 46H887V0H876Q855 3 736 3Q605 3 596 0H585V46H618Q660 47 669 49T688 61V347Q688 424 688 461T688 546T688 613L687 632Q454 14 450 7Q446 1 430 1T410 7Q409 9 292 316L176 624V606Q175 588 175 543T175 463T175 356L176 86Q187 50 261 46H278V0H269Q254 3 154 3Q52 3 37 0H29V46H46Q78 48 98 56T122 69T132 86V622Z"></path><path id="MJX-8-TEX-N-70" d="M36 -148H50Q89 -148 97 -134V-126Q97 -119 97 -107T97 -77T98 -38T98 6T98 55T98 106Q98 140 98 177T98 243T98 296T97 335T97 351Q94 370 83 376T38 385H20V408Q20 431 22 431L32 432Q42 433 61 434T98 436Q115 437 135 438T165 441T176 442H179V416L180 390L188 397Q247 441 326 441Q407 441 464 377T522 216Q522 115 457 52T310 -11Q242 -11 190 33L182 40V-45V-101Q182 -128 184 -134T195 -145Q216 -148 244 -148H260V-194H252L228 -193Q205 -192 178 -192T140 -191Q37 -191 28 -194H20V-148H36ZM424 218Q424 292 390 347T305 402Q234 402 182 337V98Q222 26 294 26Q345 26 384 80T424 218Z"></path><path id="MJX-8-TEX-I-1D700" d="M190 -22Q124 -22 76 11T27 107Q27 174 97 232L107 239L99 248Q76 273 76 304Q76 364 144 408T290 452H302Q360 452 405 421Q428 405 428 392Q428 381 417 369T391 356Q382 356 371 365T338 383T283 392Q217 392 167 368T116 308Q116 289 133 272Q142 263 145 262T157 264Q188 278 238 278H243Q308 278 308 247Q308 206 223 206Q177 206 142 219L132 212Q68 169 68 112Q68 39 201 39Q253 39 286 49T328 72T345 94T362 105Q376 103 376 88Q376 79 365 62T334 26T275 -8T190 -22Z"></path><path id="MJX-8-TEX-N-2208" d="M84 250Q84 372 166 450T360 539Q361 539 377 539T419 540T469 540H568Q583 532 583 520Q583 511 570 501L466 500Q355 499 329 494Q280 482 242 458T183 409T147 354T129 306T124 272V270H568Q583 262 583 250T568 230H124V228Q124 207 134 177T167 112T231 48T328 7Q355 1 466 0H570Q583 -10 583 -20Q583 -32 568 -40H471Q464 -40 446 -40T417 -41Q262 -41 172 45Q84 127 84 250Z"></path><path id="MJX-8-TEX-N-5B" d="M118 -250V750H255V710H158V-210H255V-250H118Z"></path><path id="MJX-8-TEX-N-2C" d="M78 35T78 60T94 103T137 121Q165 121 187 96T210 8Q210 -27 201 -60T180 -117T154 -158T130 -185T117 -194Q113 -194 104 -185T95 -172Q95 -168 106 -156T131 -126T157 -76T173 -3V9L172 8Q170 7 167 6T161 3T152 1T140 0Q113 0 96 17Z"></path><path id="MJX-8-TEX-N-5D" d="M22 710V750H159V-250H22V-210H119V710H22Z"></path><path id="MJX-8-TEX-N-7A" d="M42 263Q44 270 48 345T53 423V431H393Q399 425 399 415Q399 403 398 402L381 378Q364 355 331 309T265 220L134 41L182 40H206Q254 40 283 46T331 77Q352 105 359 185L361 201Q361 202 381 202H401V196Q401 195 393 103T384 6V0H209L34 1L31 3Q28 8 28 17Q28 30 29 31T160 210T294 394H236Q169 393 152 388Q127 382 113 367Q89 344 82 264V255H42V263Z"></path><path id="MJX-8-TEX-N-36" d="M42 313Q42 476 123 571T303 666Q372 666 402 630T432 550Q432 525 418 510T379 495Q356 495 341 509T326 548Q326 592 373 601Q351 623 311 626Q240 626 194 566Q147 500 147 364L148 360Q153 366 156 373Q197 433 263 433H267Q313 433 348 414Q372 400 396 374T435 317Q456 268 456 210V192Q456 169 451 149Q440 90 387 34T253 -22Q225 -22 199 -14T143 16T92 75T56 172T42 313ZM257 397Q227 397 205 380T171 335T154 278T148 216Q148 133 160 97T198 39Q222 21 251 21Q302 21 329 59Q342 77 347 104T352 209Q352 289 347 316T329 361Q302 397 257 397Z"></path></defs><g stroke="currentColor" fill="currentColor" stroke-width="0" transform="scale(1,-1)"><g data-mml-node="math"><g data-mml-node="mi"><use data-c="1D449" xlink:href="#MJX-8-TEX-I-1D449"></use></g><g data-mml-node="mo" transform="translate(769,0)"><use data-c="28" xlink:href="#MJX-8-TEX-N-28"></use></g><g data-mml-node="mi" transform="translate(1158,0)"><use data-c="1D439" xlink:href="#MJX-8-TEX-I-1D439"></use></g><g data-mml-node="mo" transform="translate(1907,0)"><use data-c="29" xlink:href="#MJX-8-TEX-N-29"></use></g><g data-mml-node="mo" transform="translate(2573.8,0)"><use data-c="2192" xlink:href="#MJX-8-TEX-N-2192"></use></g><g data-mml-node="mrow" transform="translate(3851.6,0)"><g data-mml-node="mo"><use data-c="23A7" xlink:href="#MJX-8-TEX-S4-23A7" transform="translate(0,1073.8)"></use><use data-c="23A9" xlink:href="#MJX-8-TEX-S4-23A9" transform="translate(0,-573.8)"></use><use data-c="23A8" xlink:href="#MJX-8-TEX-S4-23A8" transform="translate(0,0)"></use><svg width="889" height="103.8" y="1060" x="0" viewBox="-165.7 -2138.5 33045.2 3777.2"><rect id="equation-background" x="-165.7" y="-2138.5" width="33045.2" height="3777.2" fill="white" /><use data-c="23AA" xlink:href="#MJX-8-TEX-S4-23AA" transform="scale(1,0.511)"></use></svg><svg width="889" height="103.8" y="-663.8" x="0" viewBox="-165.7 -2138.5 33045.2 3777.2"><rect id="equation-background" x="-165.7" y="-2138.5" width="33045.2" height="3777.2" fill="white" /><use data-c="23AA" xlink:href="#MJX-8-TEX-S4-23AA" transform="scale(1,0.511)"></use></svg></g><g data-mml-node="mtable" transform="translate(889,0)"><g data-mml-node="mtr" transform="translate(0,1222.8)"><g data-mml-node="mtd"><g data-mml-node="msub"><g data-mml-node="mi"><use data-c="1D449" xlink:href="#MJX-8-TEX-I-1D449"></use></g><g data-mml-node="TeXAtom" transform="translate(616,-150) scale(0.707)" data-mjx-texclass="ORD"><g data-mml-node="mtext"><use data-c="68" xlink:href="#MJX-8-TEX-N-68"></use><use data-c="69" xlink:href="#MJX-8-TEX-N-69" transform="translate(556,0)"></use><use data-c="67" xlink:href="#MJX-8-TEX-N-67" transform="translate(834,0)"></use><use data-c="68" xlink:href="#MJX-8-TEX-N-68" transform="translate(1334,0)"></use></g></g></g><g data-mml-node="mo" transform="translate(2224.7,0)"><use data-c="22C5" xlink:href="#MJX-8-TEX-N-22C5"></use></g><g data-mml-node="mi" transform="translate(2724.9,0)"><use data-c="1D439" xlink:href="#MJX-8-TEX-I-1D439"></use></g></g><g data-mml-node="mtd" transform="translate(4473.9,0)"><g data-mml-node="mtext"><use data-c="69" xlink:href="#MJX-8-TEX-N-69"></use><use data-c="66" xlink:href="#MJX-8-TEX-N-66" transform="translate(278,0)"></use><use data-c="A0" xlink:href="#MJX-8-TEX-N-A0" transform="translate(584,0)"></use></g><g data-mml-node="mi" transform="translate(834,0)"><use data-c="1D439" xlink:href="#MJX-8-TEX-I-1D439"></use></g><g data-mml-node="mo" transform="translate(1860.8,0)"><use data-c="3E" xlink:href="#MJX-8-TEX-N-3E"></use></g><g data-mml-node="msub" transform="translate(2916.6,0)"><g data-mml-node="mi"><use data-c="1D439" xlink:href="#MJX-8-TEX-I-1D439"></use></g><g data-mml-node="TeXAtom" transform="translate(676,-150) scale(0.707)" data-mjx-texclass="ORD"><g data-mml-node="mtext"><use data-c="74" xlink:href="#MJX-8-TEX-N-74"></use><use data-c="68" xlink:href="#MJX-8-TEX-N-68" transform="translate(389,0)"></use><use data-c="72" xlink:href="#MJX-8-TEX-N-72" transform="translate(945,0)"></use><use data-c="65" xlink:href="#MJX-8-TEX-N-65" transform="translate(1337,0)"></use><use data-c="73" xlink:href="#MJX-8-TEX-N-73" transform="translate(1781,0)"></use><use data-c="68" xlink:href="#MJX-8-TEX-N-68" transform="translate(2175,0)"></use><use data-c="6F" xlink:href="#MJX-8-TEX-N-6F" transform="translate(2731,0)"></use><use data-c="6C" xlink:href="#MJX-8-TEX-N-6C" transform="translate(3231,0)"></use><use data-c="64" xlink:href="#MJX-8-TEX-N-64" transform="translate(3509,0)"></use></g></g></g><g data-mml-node="mstyle" transform="translate(6516.9,0)"><g data-mml-node="mspace"></g></g><g data-mml-node="mtext" transform="translate(7516.9,0)"><use data-c="28" xlink:href="#MJX-8-TEX-N-28"></use><use data-c="6A" xlink:href="#MJX-8-TEX-N-6A" transform="translate(389,0)"></use><use data-c="75" xlink:href="#MJX-8-TEX-N-75" transform="translate(695,0)"></use><use data-c="64" xlink:href="#MJX-8-TEX-N-64" transform="translate(1251,0)"></use><use data-c="67" xlink:href="#MJX-8-TEX-N-67" transform="translate(1807,0)"></use><use data-c="6D" xlink:href="#MJX-8-TEX-N-6D" transform="translate(2307,0)"></use><use data-c="65" xlink:href="#MJX-8-TEX-N-65" transform="translate(3140,0)"></use><use data-c="6E" xlink:href="#MJX-8-TEX-N-6E" transform="translate(3584,0)"></use><use data-c="74" xlink:href="#MJX-8-TEX-N-74" transform="translate(4140,0)"></use><use data-c="20" xlink:href="#MJX-8-TEX-N-20" transform="translate(4529,0)"></use><use data-c="6C" xlink:href="#MJX-8-TEX-N-6C" transform="translate(4779,0)"></use><use data-c="61" xlink:href="#MJX-8-TEX-N-61" transform="translate(5057,0)"></use><use data-c="79" xlink:href="#MJX-8-TEX-N-79" transform="translate(5557,0)"></use><use data-c="65" xlink:href="#MJX-8-TEX-N-65" transform="translate(6085,0)"></use><use data-c="72" xlink:href="#MJX-8-TEX-N-72" transform="translate(6529,0)"></use><use data-c="29" xlink:href="#MJX-8-TEX-N-29" transform="translate(6921,0)"></use></g></g></g><g data-mml-node="mtr" transform="translate(0,-22.8)"><g data-mml-node="mtd"><g data-mml-node="msub"><g data-mml-node="mi"><use data-c="1D449" xlink:href="#MJX-8-TEX-I-1D449"></use></g><g data-mml-node="TeXAtom" transform="translate(616,-150) scale(0.707)" data-mjx-texclass="ORD"><g data-mml-node="mtext"><use data-c="6E" xlink:href="#MJX-8-TEX-N-6E"></use><use data-c="65" xlink:href="#MJX-8-TEX-N-65" transform="translate(556,0)"></use><use data-c="77" xlink:href="#MJX-8-TEX-N-77" transform="translate(1000,0)"></use></g></g></g></g><g data-mml-node="mtd" transform="translate(4473.9,0)"><g data-mml-node="mtext"><use data-c="69" xlink:href="#MJX-8-TEX-N-69"></use><use data-c="66" xlink:href="#MJX-8-TEX-N-66" transform="translate(278,0)"></use><use data-c="20" xlink:href="#MJX-8-TEX-N-20" transform="translate(584,0)"></use><use data-c="6F" xlink:href="#MJX-8-TEX-N-6F" transform="translate(834,0)"></use><use data-c="72" xlink:href="#MJX-8-TEX-N-72" transform="translate(1334,0)"></use><use data-c="63" xlink:href="#MJX-8-TEX-N-63" transform="translate(1726,0)"></use><use data-c="68" xlink:href="#MJX-8-TEX-N-68" transform="translate(2170,0)"></use><use data-c="65" xlink:href="#MJX-8-TEX-N-65" transform="translate(2726,0)"></use><use data-c="73" xlink:href="#MJX-8-TEX-N-73" transform="translate(3170,0)"></use><use data-c="74" xlink:href="#MJX-8-TEX-N-74" transform="translate(3564,0)"></use><use data-c="72" xlink:href="#MJX-8-TEX-N-72" transform="translate(3953,0)"></use><use data-c="61" xlink:href="#MJX-8-TEX-N-61" transform="translate(4345,0)"></use><use data-c="74" xlink:href="#MJX-8-TEX-N-74" transform="translate(4845,0)"></use><use data-c="69" xlink:href="#MJX-8-TEX-N-69" transform="translate(5234,0)"></use><use data-c="6F" xlink:href="#MJX-8-TEX-N-6F" transform="translate(5512,0)"></use><use data-c="6E" xlink:href="#MJX-8-TEX-N-6E" transform="translate(6012,0)"></use><use data-c="20" xlink:href="#MJX-8-TEX-N-20" transform="translate(6568,0)"></use><use data-c="73" xlink:href="#MJX-8-TEX-N-73" transform="translate(6818,0)"></use><use data-c="6B" xlink:href="#MJX-8-TEX-N-6B" transform="translate(7212,0)"></use><use data-c="69" xlink:href="#MJX-8-TEX-N-69" transform="translate(7740,0)"></use><use data-c="6C" xlink:href="#MJX-8-TEX-N-6C" transform="translate(8018,0)"></use><use data-c="6C" xlink:href="#MJX-8-TEX-N-6C" transform="translate(8296,0)"></use><use data-c="20" xlink:href="#MJX-8-TEX-N-20" transform="translate(8574,0)"></use><use data-c="69" xlink:href="#MJX-8-TEX-N-69" transform="translate(8824,0)"></use><use data-c="73" xlink:href="#MJX-8-TEX-N-73" transform="translate(9102,0)"></use><use data-c="20" xlink:href="#MJX-8-TEX-N-20" transform="translate(9496,0)"></use><use data-c="68" xlink:href="#MJX-8-TEX-N-68" transform="translate(9746,0)"></use><use data-c="69" xlink:href="#MJX-8-TEX-N-69" transform="translate(10302,0)"></use><use data-c="67" xlink:href="#MJX-8-TEX-N-67" transform="translate(10580,0)"></use><use data-c="68" xlink:href="#MJX-8-TEX-N-68" transform="translate(11080,0)"></use></g><g data-mml-node="mstyle" transform="translate(11636,0)"><g data-mml-node="mspace"></g></g><g data-mml-node="mtext" transform="translate(12636,0)"><use data-c="28" xlink:href="#MJX-8-TEX-N-28"></use><use data-c="4C" xlink:href="#MJX-8-TEX-N-4C" transform="translate(389,0)"></use><use data-c="4C" xlink:href="#MJX-8-TEX-N-4C" transform="translate(1014,0)"></use><use data-c="4D" xlink:href="#MJX-8-TEX-N-4D" transform="translate(1639,0)"></use><use data-c="20" xlink:href="#MJX-8-TEX-N-20" transform="translate(2556,0)"></use><use data-c="6F" xlink:href="#MJX-8-TEX-N-6F" transform="translate(2806,0)"></use><use data-c="70" xlink:href="#MJX-8-TEX-N-70" transform="translate(3306,0)"></use><use data-c="65" xlink:href="#MJX-8-TEX-N-65" transform="translate(3862,0)"></use><use data-c="72" xlink:href="#MJX-8-TEX-N-72" transform="translate(4306,0)"></use><use data-c="61" xlink:href="#MJX-8-TEX-N-61" transform="translate(4698,0)"></use><use data-c="74" xlink:href="#MJX-8-TEX-N-74" transform="translate(5198,0)"></use><use data-c="69" xlink:href="#MJX-8-TEX-N-69" transform="translate(5587,0)"></use><use data-c="6F" xlink:href="#MJX-8-TEX-N-6F" transform="translate(5865,0)"></use><use data-c="6E" xlink:href="#MJX-8-TEX-N-6E" transform="translate(6365,0)"></use><use data-c="29" xlink:href="#MJX-8-TEX-N-29" transform="translate(6921,0)"></use></g></g></g><g data-mml-node="mtr" transform="translate(0,-1222.8)"><g data-mml-node="mtd"><g data-mml-node="mi"><use data-c="1D700" xlink:href="#MJX-8-TEX-I-1D700"></use></g></g><g data-mml-node="mtd" transform="translate(4473.9,0)"><g data-mml-node="mtext"><use data-c="69" xlink:href="#MJX-8-TEX-N-69"></use><use data-c="66" xlink:href="#MJX-8-TEX-N-66" transform="translate(278,0)"></use><use data-c="A0" xlink:href="#MJX-8-TEX-N-A0" transform="translate(584,0)"></use></g><g data-mml-node="mi" transform="translate(834,0)"><use data-c="1D439" xlink:href="#MJX-8-TEX-I-1D439"></use></g><g data-mml-node="mo" transform="translate(1860.8,0)"><use data-c="2208" xlink:href="#MJX-8-TEX-N-2208"></use></g><g data-mml-node="mo" transform="translate(2805.6,0)"><use data-c="5B" xlink:href="#MJX-8-TEX-N-5B"></use></g><g data-mml-node="msub" transform="translate(3083.6,0)"><g data-mml-node="mi"><use data-c="1D439" xlink:href="#MJX-8-TEX-I-1D439"></use></g><g data-mml-node="TeXAtom" transform="translate(676,-150) scale(0.707)" data-mjx-texclass="ORD"><g data-mml-node="mtext"><use data-c="6C" xlink:href="#MJX-8-TEX-N-6C"></use><use data-c="6F" xlink:href="#MJX-8-TEX-N-6F" transform="translate(278,0)"></use><use data-c="77" xlink:href="#MJX-8-TEX-N-77" transform="translate(778,0)"></use></g></g></g><g data-mml-node="mo" transform="translate(4870.2,0)"><use data-c="2C" xlink:href="#MJX-8-TEX-N-2C"></use></g><g data-mml-node="msub" transform="translate(5314.9,0)"><g data-mml-node="mi"><use data-c="1D439" xlink:href="#MJX-8-TEX-I-1D439"></use></g><g data-mml-node="TeXAtom" transform="translate(676,-150) scale(0.707)" data-mjx-texclass="ORD"><g data-mml-node="mtext"><use data-c="74" xlink:href="#MJX-8-TEX-N-74"></use><use data-c="68" xlink:href="#MJX-8-TEX-N-68" transform="translate(389,0)"></use><use data-c="72" xlink:href="#MJX-8-TEX-N-72" transform="translate(945,0)"></use><use data-c="65" xlink:href="#MJX-8-TEX-N-65" transform="translate(1337,0)"></use><use data-c="73" xlink:href="#MJX-8-TEX-N-73" transform="translate(1781,0)"></use><use data-c="68" xlink:href="#MJX-8-TEX-N-68" transform="translate(2175,0)"></use><use data-c="6F" xlink:href="#MJX-8-TEX-N-6F" transform="translate(2731,0)"></use><use data-c="6C" xlink:href="#MJX-8-TEX-N-6C" transform="translate(3231,0)"></use><use data-c="64" xlink:href="#MJX-8-TEX-N-64" transform="translate(3509,0)"></use></g></g></g><g data-mml-node="mo" transform="translate(8915.3,0)"><use data-c="5D" xlink:href="#MJX-8-TEX-N-5D"></use></g><g data-mml-node="mstyle" transform="translate(9193.3,0)"><g data-mml-node="mspace"></g></g><g data-mml-node="mtext" transform="translate(10193.3,0)"><use data-c="28" xlink:href="#MJX-8-TEX-N-28"></use><use data-c="63" xlink:href="#MJX-8-TEX-N-63" transform="translate(389,0)"></use><use data-c="6F" xlink:href="#MJX-8-TEX-N-6F" transform="translate(833,0)"></use><use data-c="6D" xlink:href="#MJX-8-TEX-N-6D" transform="translate(1333,0)"></use><use data-c="6D" xlink:href="#MJX-8-TEX-N-6D" transform="translate(2166,0)"></use><use data-c="6F" xlink:href="#MJX-8-TEX-N-6F" transform="translate(2999,0)"></use><use data-c="64" xlink:href="#MJX-8-TEX-N-64" transform="translate(3499,0)"></use><use data-c="69" xlink:href="#MJX-8-TEX-N-69" transform="translate(4055,0)"></use><use data-c="74" xlink:href="#MJX-8-TEX-N-74" transform="translate(4333,0)"></use><use data-c="69" xlink:href="#MJX-8-TEX-N-69" transform="translate(4722,0)"></use><use data-c="7A" xlink:href="#MJX-8-TEX-N-7A" transform="translate(5000,0)"></use><use data-c="65" xlink:href="#MJX-8-TEX-N-65" transform="translate(5444,0)"></use><use data-c="64" xlink:href="#MJX-8-TEX-N-64" transform="translate(5888,0)"></use><use data-c="20" xlink:href="#MJX-8-TEX-N-20" transform="translate(6444,0)"></use><use data-c="6D" xlink:href="#MJX-8-TEX-N-6D" transform="translate(6694,0)"></use><use data-c="69" xlink:href="#MJX-8-TEX-N-69" transform="translate(7527,0)"></use><use data-c="64" xlink:href="#MJX-8-TEX-N-64" transform="translate(7805,0)"></use><use data-c="64" xlink:href="#MJX-8-TEX-N-64" transform="translate(8361,0)"></use><use data-c="6C" xlink:href="#MJX-8-TEX-N-6C" transform="translate(8917,0)"></use><use data-c="65" xlink:href="#MJX-8-TEX-N-65" transform="translate(9195,0)"></use><use data-c="29" xlink:href="#MJX-8-TEX-N-29" transform="translate(9639,0)"></use></g></g></g></g><g data-mml-node="mo" transform="translate(25584.1,0) translate(0 250)"></g></g><g data-mml-node="mstyle" transform="translate(29435.7,0)"><g data-mml-node="mspace"></g></g><g data-mml-node="mo" transform="translate(31435.7,0)"><use data-c="28" xlink:href="#MJX-8-TEX-N-28"></use></g><g data-mml-node="mn" transform="translate(31824.7,0)"><use data-c="36" xlink:href="#MJX-8-TEX-N-36"></use></g><g data-mml-node="mo" transform="translate(32324.7,0)"><use data-c="29" xlink:href="#MJX-8-TEX-N-29"></use></g></g></g></svg>