<svg style="vertical-align: -0.566ex;" xmlns="http://www.w3.org/2000/svg" width="35.537ex" height="3.45ex" role="img" focusable="false" viewBox="-165.8 -1109.1 15707.4 1524.8" xmlns:xlink="http://www.w3.org/1999/xlink"><rect id="equation-background" x="-165.8" y="-1109.1" width="15707.4" height="1524.8" fill="white" /><defs><path id="MJX-39-TEX-I-1D453" d="M118 -162Q120 -162 124 -164T135 -167T147 -168Q160 -168 171 -155T187 -126Q197 -99 221 27T267 267T289 382V385H242Q195 385 192 387Q188 390 188 397L195 425Q197 430 203 430T250 431Q298 431 298 432Q298 434 307 482T319 540Q356 705 465 705Q502 703 526 683T550 630Q550 594 529 578T487 561Q443 561 443 603Q443 622 454 636T478 657L487 662Q471 668 457 668Q445 668 434 658T419 630Q412 601 403 552T387 469T380 433Q380 431 435 431Q480 431 487 430T498 424Q499 420 496 407T491 391Q489 386 482 386T428 385H372L349 263Q301 15 282 -47Q255 -132 212 -173Q175 -205 139 -205Q107 -205 81 -186T55 -132Q55 -95 76 -78T118 -61Q162 -61 162 -103Q162 -122 151 -136T127 -157L118 -162Z"></path><path id="MJX-39-TEX-N-6D" d="M41 46H55Q94 46 102 60V68Q102 77 102 91T102 122T103 161T103 203Q103 234 103 269T102 328V351Q99 370 88 376T43 385H25V408Q25 431 27 431L37 432Q47 433 65 434T102 436Q119 437 138 438T167 441T178 442H181V402Q181 364 182 364T187 369T199 384T218 402T247 421T285 437Q305 442 336 442Q351 442 364 440T387 434T406 426T421 417T432 406T441 395T448 384T452 374T455 366L457 361L460 365Q463 369 466 373T475 384T488 397T503 410T523 422T546 432T572 439T603 442Q729 442 740 329Q741 322 741 190V104Q741 66 743 59T754 49Q775 46 803 46H819V0H811L788 1Q764 2 737 2T699 3Q596 3 587 0H579V46H595Q656 46 656 62Q657 64 657 200Q656 335 655 343Q649 371 635 385T611 402T585 404Q540 404 506 370Q479 343 472 315T464 232V168V108Q464 78 465 68T468 55T477 49Q498 46 526 46H542V0H534L510 1Q487 2 460 2T422 3Q319 3 310 0H302V46H318Q379 46 379 62Q380 64 380 200Q379 335 378 343Q372 371 358 385T334 402T308 404Q263 404 229 370Q202 343 195 315T187 232V168V108Q187 78 188 68T191 55T200 49Q221 46 249 46H265V0H257L234 1Q210 2 183 2T145 3Q42 3 33 0H25V46H41Z"></path><path id="MJX-39-TEX-N-6F" d="M28 214Q28 309 93 378T250 448Q340 448 405 380T471 215Q471 120 407 55T250 -10Q153 -10 91 57T28 214ZM250 30Q372 30 372 193V225V250Q372 272 371 288T364 326T348 362T317 390T268 410Q263 411 252 411Q222 411 195 399Q152 377 139 338T126 246V226Q126 130 145 91Q177 30 250 30Z"></path><path id="MJX-39-TEX-N-74" d="M27 422Q80 426 109 478T141 600V615H181V431H316V385H181V241Q182 116 182 100T189 68Q203 29 238 29Q282 29 292 100Q293 108 293 146V181H333V146V134Q333 57 291 17Q264 -10 221 -10Q187 -10 162 2T124 33T105 68T98 100Q97 107 97 248V385H18V422H27Z"></path><path id="MJX-39-TEX-N-28" d="M94 250Q94 319 104 381T127 488T164 576T202 643T244 695T277 729T302 750H315H319Q333 750 333 741Q333 738 316 720T275 667T226 581T184 443T167 250T184 58T225 -81T274 -167T316 -220T333 -241Q333 -250 318 -250H315H302L274 -226Q180 -141 137 -14T94 250Z"></path><path id="MJX-39-TEX-I-1D461" d="M26 385Q19 392 19 395Q19 399 22 411T27 425Q29 430 36 430T87 431H140L159 511Q162 522 166 540T173 566T179 586T187 603T197 615T211 624T229 626Q247 625 254 615T261 596Q261 589 252 549T232 470L222 433Q222 431 272 431H323Q330 424 330 420Q330 398 317 385H210L174 240Q135 80 135 68Q135 26 162 26Q197 26 230 60T283 144Q285 150 288 151T303 153H307Q322 153 322 145Q322 142 319 133Q314 117 301 95T267 48T216 6T155 -11Q125 -11 98 4T59 56Q57 64 57 83V101L92 241Q127 382 128 383Q128 385 77 385H26Z"></path><path id="MJX-39-TEX-N-29" d="M60 749L64 750Q69 750 74 750H86L114 726Q208 641 251 514T294 250Q294 182 284 119T261 12T224 -76T186 -143T145 -194T113 -227T90 -246Q87 -249 86 -250H74Q66 -250 63 -250T58 -247T55 -238Q56 -237 66 -225Q221 -64 221 250T66 725Q56 737 55 738Q55 746 60 749Z"></path><path id="MJX-39-TEX-N-3D" d="M56 347Q56 360 70 367H707Q722 359 722 347Q722 336 708 328L390 327H72Q56 332 56 347ZM56 153Q56 168 72 173H708Q722 163 722 153Q722 140 707 133H70Q56 140 56 153Z"></path><path id="MJX-39-TEX-N-30" d="M96 585Q152 666 249 666Q297 666 345 640T423 548Q460 465 460 320Q460 165 417 83Q397 41 362 16T301 -15T250 -22Q224 -22 198 -16T137 16T82 83Q39 165 39 320Q39 494 96 585ZM321 597Q291 629 250 629Q208 629 178 597Q153 571 145 525T137 333Q137 175 145 125T181 46Q209 16 250 16Q290 16 318 46Q347 76 354 130T362 333Q362 478 354 524T321 597Z"></path><path id="MJX-39-TEX-N-D7" d="M630 29Q630 9 609 9Q604 9 587 25T493 118L389 222L284 117Q178 13 175 11Q171 9 168 9Q160 9 154 15T147 29Q147 36 161 51T255 146L359 250L255 354Q174 435 161 449T147 471Q147 480 153 485T168 490Q173 490 175 489Q178 487 284 383L389 278L493 382Q570 459 587 475T609 491Q630 491 630 471Q630 464 620 453T522 355L418 250L522 145Q606 61 618 48T630 29Z"></path><path id="MJX-39-TEX-I-1D452" d="M39 168Q39 225 58 272T107 350T174 402T244 433T307 442H310Q355 442 388 420T421 355Q421 265 310 237Q261 224 176 223Q139 223 138 221Q138 219 132 186T125 128Q125 81 146 54T209 26T302 45T394 111Q403 121 406 121Q410 121 419 112T429 98T420 82T390 55T344 24T281 -1T205 -11Q126 -11 83 42T39 168ZM373 353Q367 405 305 405Q272 405 244 391T199 357T170 316T154 280T149 261Q149 260 169 260Q282 260 327 284T373 353Z"></path><path id="MJX-39-TEX-N-2212" d="M84 237T84 250T98 270H679Q694 262 694 250T679 230H98Q84 237 84 250Z"></path><path id="MJX-39-TEX-I-1D706" d="M166 673Q166 685 183 694H202Q292 691 316 644Q322 629 373 486T474 207T524 67Q531 47 537 34T546 15T551 6T555 2T556 -2T550 -11H482Q457 3 450 18T399 152L354 277L340 262Q327 246 293 207T236 141Q211 112 174 69Q123 9 111 -1T83 -12Q47 -12 47 20Q47 37 61 52T199 187Q229 216 266 252T321 306L338 322Q338 323 288 462T234 612Q214 657 183 657Q166 657 166 673Z"></path><path id="MJX-39-TEX-N-22C5" d="M78 250Q78 274 95 292T138 310Q162 310 180 294T199 251Q199 226 182 208T139 190T96 207T78 250Z"></path><path id="MJX-39-TEX-I-1D434" d="M208 74Q208 50 254 46Q272 46 272 35Q272 34 270 22Q267 8 264 4T251 0Q249 0 239 0T205 1T141 2Q70 2 50 0H42Q35 7 35 11Q37 38 48 46H62Q132 49 164 96Q170 102 345 401T523 704Q530 716 547 716H555H572Q578 707 578 706L606 383Q634 60 636 57Q641 46 701 46Q726 46 726 36Q726 34 723 22Q720 7 718 4T704 0Q701 0 690 0T651 1T578 2Q484 2 455 0H443Q437 6 437 9T439 27Q443 40 445 43L449 46H469Q523 49 533 63L521 213H283L249 155Q208 86 208 74ZM516 260Q516 271 504 416T490 562L463 519Q447 492 400 412L310 260L413 259Q516 259 516 260Z"></path><path id="MJX-39-TEX-N-32" d="M109 429Q82 429 66 447T50 491Q50 562 103 614T235 666Q326 666 387 610T449 465Q449 422 429 383T381 315T301 241Q265 210 201 149L142 93L218 92Q375 92 385 97Q392 99 409 186V189H449V186Q448 183 436 95T421 3V0H50V19V31Q50 38 56 46T86 81Q115 113 136 137Q145 147 170 174T204 211T233 244T261 278T284 308T305 340T320 369T333 401T340 431T343 464Q343 527 309 573T212 619Q179 619 154 602T119 569T109 550Q109 549 114 549Q132 549 151 535T170 489Q170 464 154 447T109 429Z"></path><path id="MJX-39-TEX-N-33" d="M127 463Q100 463 85 480T69 524Q69 579 117 622T233 665Q268 665 277 664Q351 652 390 611T430 522Q430 470 396 421T302 350L299 348Q299 347 308 345T337 336T375 315Q457 262 457 175Q457 96 395 37T238 -22Q158 -22 100 21T42 130Q42 158 60 175T105 193Q133 193 151 175T169 130Q169 119 166 110T159 94T148 82T136 74T126 70T118 67L114 66Q165 21 238 21Q293 21 321 74Q338 107 338 175V195Q338 290 274 322Q259 328 213 329L171 330L168 332Q166 335 166 348Q166 366 174 366Q202 366 232 371Q266 376 294 413T322 525V533Q322 590 287 612Q265 626 240 626Q208 626 181 615T143 592T132 580H135Q138 579 143 578T153 573T165 566T175 555T183 540T186 520Q186 498 172 481T127 463Z"></path></defs><g stroke="currentColor" fill="currentColor" stroke-width="0" transform="scale(1,-1)"><g data-mml-node="math"><g data-mml-node="msub"><g data-mml-node="mi"><use data-c="1D453" xlink:href="#MJX-39-TEX-I-1D453"></use></g><g data-mml-node="TeXAtom" transform="translate(523,-150) scale(0.707)" data-mjx-texclass="ORD"><g data-mml-node="mtext"><use data-c="6D" xlink:href="#MJX-39-TEX-N-6D"></use><use data-c="6F" xlink:href="#MJX-39-TEX-N-6F" transform="translate(833,0)"></use><use data-c="74" xlink:href="#MJX-39-TEX-N-74" transform="translate(1333,0)"></use></g></g></g><g data-mml-node="mo" transform="translate(1790.6,0)"><use data-c="28" xlink:href="#MJX-39-TEX-N-28"></use></g><g data-mml-node="mi" transform="translate(2179.6,0)"><use data-c="1D461" xlink:href="#MJX-39-TEX-I-1D461"></use></g><g data-mml-node="mo" transform="translate(2540.6,0)"><use data-c="29" xlink:href="#MJX-39-TEX-N-29"></use></g><g data-mml-node="mo" transform="translate(3207.4,0)"><use data-c="3D" xlink:href="#MJX-39-TEX-N-3D"></use></g><g data-mml-node="msub" transform="translate(4263.2,0)"><g data-mml-node="mi"><use data-c="1D453" xlink:href="#MJX-39-TEX-I-1D453"></use></g><g data-mml-node="TeXAtom" transform="translate(523,-150) scale(0.707)" data-mjx-texclass="ORD"><g data-mml-node="mtext"><use data-c="6D" xlink:href="#MJX-39-TEX-N-6D"></use><use data-c="6F" xlink:href="#MJX-39-TEX-N-6F" transform="translate(833,0)"></use><use data-c="74" xlink:href="#MJX-39-TEX-N-74" transform="translate(1333,0)"></use></g></g></g><g data-mml-node="mo" transform="translate(6053.8,0)"><use data-c="28" xlink:href="#MJX-39-TEX-N-28"></use></g><g data-mml-node="mn" transform="translate(6442.8,0)"><use data-c="30" xlink:href="#MJX-39-TEX-N-30"></use></g><g data-mml-node="mo" transform="translate(6942.8,0)"><use data-c="29" xlink:href="#MJX-39-TEX-N-29"></use></g><g data-mml-node="mo" transform="translate(7554.1,0)"><use data-c="D7" xlink:href="#MJX-39-TEX-N-D7"></use></g><g data-mml-node="msup" transform="translate(8554.3,0)"><g data-mml-node="mi"><use data-c="1D452" xlink:href="#MJX-39-TEX-I-1D452"></use></g><g data-mml-node="TeXAtom" transform="translate(499,413) scale(0.707)" data-mjx-texclass="ORD"><g data-mml-node="mo"><use data-c="2212" xlink:href="#MJX-39-TEX-N-2212"></use></g><g data-mml-node="mi" transform="translate(778,0)"><use data-c="1D706" xlink:href="#MJX-39-TEX-I-1D706"></use></g><g data-mml-node="mo" transform="translate(1361,0)"><use data-c="22C5" xlink:href="#MJX-39-TEX-N-22C5"></use></g><g data-mml-node="mi" transform="translate(1639,0)"><use data-c="1D434" xlink:href="#MJX-39-TEX-I-1D434"></use></g><g data-mml-node="mo" transform="translate(2389,0)"><use data-c="28" xlink:href="#MJX-39-TEX-N-28"></use></g><g data-mml-node="mi" transform="translate(2778,0)"><use data-c="1D461" xlink:href="#MJX-39-TEX-I-1D461"></use></g><g data-mml-node="mo" transform="translate(3139,0)"><use data-c="29" xlink:href="#MJX-39-TEX-N-29"></use></g></g></g><g data-mml-node="mstyle" transform="translate(11597.9,0)"><g data-mml-node="mspace"></g></g><g data-mml-node="mo" transform="translate(13597.9,0)"><use data-c="28" xlink:href="#MJX-39-TEX-N-28"></use></g><g data-mml-node="mn" transform="translate(13986.9,0)"><use data-c="32" xlink:href="#MJX-39-TEX-N-32"></use><use data-c="33" xlink:href="#MJX-39-TEX-N-33" transform="translate(500,0)"></use></g><g data-mml-node="mo" transform="translate(14986.9,0)"><use data-c="29" xlink:href="#MJX-39-TEX-N-29"></use></g></g></g></svg>