<svg style="vertical-align: -0.566ex;" xmlns="http://www.w3.org/2000/svg" width="48.344ex" height="3.012ex" role="img" focusable="false" viewBox="-165.8 -915.8 21368.3 1331.5" xmlns:xlink="http://www.w3.org/1999/xlink"><rect id="equation-background" x="-165.8" y="-915.8" width="21368.3" height="1331.5" fill="white" /><defs><path id="MJX-20-TEX-I-1D43E" d="M285 628Q285 635 228 637Q205 637 198 638T191 647Q191 649 193 661Q199 681 203 682Q205 683 214 683H219Q260 681 355 681Q389 681 418 681T463 682T483 682Q500 682 500 674Q500 669 497 660Q496 658 496 654T495 648T493 644T490 641T486 639T479 638T470 637T456 637Q416 636 405 634T387 623L306 305Q307 305 490 449T678 597Q692 611 692 620Q692 635 667 637Q651 637 651 648Q651 650 654 662T659 677Q662 682 676 682Q680 682 711 681T791 680Q814 680 839 681T869 682Q889 682 889 672Q889 650 881 642Q878 637 862 637Q787 632 726 586Q710 576 656 534T556 455L509 418L518 396Q527 374 546 329T581 244Q656 67 661 61Q663 59 666 57Q680 47 717 46H738Q744 38 744 37T741 19Q737 6 731 0H720Q680 3 625 3Q503 3 488 0H478Q472 6 472 9T474 27Q478 40 480 43T491 46H494Q544 46 544 71Q544 75 517 141T485 216L427 354L359 301L291 248L268 155Q245 63 245 58Q245 51 253 49T303 46H334Q340 37 340 35Q340 19 333 5Q328 0 317 0Q314 0 280 1T180 2Q118 2 85 2T49 1Q31 1 31 11Q31 13 34 25Q38 41 42 43T65 46Q92 46 125 49Q139 52 144 61Q147 65 216 339T285 628Z"></path><path id="MJX-20-TEX-N-74" d="M27 422Q80 426 109 478T141 600V615H181V431H316V385H181V241Q182 116 182 100T189 68Q203 29 238 29Q282 29 292 100Q293 108 293 146V181H333V146V134Q333 57 291 17Q264 -10 221 -10Q187 -10 162 2T124 33T105 68T98 100Q97 107 97 248V385H18V422H27Z"></path><path id="MJX-20-TEX-N-61" d="M137 305T115 305T78 320T63 359Q63 394 97 421T218 448Q291 448 336 416T396 340Q401 326 401 309T402 194V124Q402 76 407 58T428 40Q443 40 448 56T453 109V145H493V106Q492 66 490 59Q481 29 455 12T400 -6T353 12T329 54V58L327 55Q325 52 322 49T314 40T302 29T287 17T269 6T247 -2T221 -8T190 -11Q130 -11 82 20T34 107Q34 128 41 147T68 188T116 225T194 253T304 268H318V290Q318 324 312 340Q290 411 215 411Q197 411 181 410T156 406T148 403Q170 388 170 359Q170 334 154 320ZM126 106Q126 75 150 51T209 26Q247 26 276 49T315 109Q317 116 318 175Q318 233 317 233Q309 233 296 232T251 223T193 203T147 166T126 106Z"></path><path id="MJX-20-TEX-N-63" d="M370 305T349 305T313 320T297 358Q297 381 312 396Q317 401 317 402T307 404Q281 408 258 408Q209 408 178 376Q131 329 131 219Q131 137 162 90Q203 29 272 29Q313 29 338 55T374 117Q376 125 379 127T395 129H409Q415 123 415 120Q415 116 411 104T395 71T366 33T318 2T249 -11Q163 -11 99 53T34 214Q34 318 99 383T250 448T370 421T404 357Q404 334 387 320Z"></path><path id="MJX-20-TEX-N-69" d="M69 609Q69 637 87 653T131 669Q154 667 171 652T188 609Q188 579 171 564T129 549Q104 549 87 564T69 609ZM247 0Q232 3 143 3Q132 3 106 3T56 1L34 0H26V46H42Q70 46 91 49Q100 53 102 60T104 102V205V293Q104 345 102 359T88 378Q74 385 41 385H30V408Q30 431 32 431L42 432Q52 433 70 434T106 436Q123 437 142 438T171 441T182 442H185V62Q190 52 197 50T232 46H255V0H247Z"></path><path id="MJX-20-TEX-N-28" d="M94 250Q94 319 104 381T127 488T164 576T202 643T244 695T277 729T302 750H315H319Q333 750 333 741Q333 738 316 720T275 667T226 581T184 443T167 250T184 58T225 -81T274 -167T316 -220T333 -241Q333 -250 318 -250H315H302L274 -226Q180 -141 137 -14T94 250Z"></path><path id="MJX-20-TEX-I-1D461" d="M26 385Q19 392 19 395Q19 399 22 411T27 425Q29 430 36 430T87 431H140L159 511Q162 522 166 540T173 566T179 586T187 603T197 615T211 624T229 626Q247 625 254 615T261 596Q261 589 252 549T232 470L222 433Q222 431 272 431H323Q330 424 330 420Q330 398 317 385H210L174 240Q135 80 135 68Q135 26 162 26Q197 26 230 60T283 144Q285 150 288 151T303 153H307Q322 153 322 145Q322 142 319 133Q314 117 301 95T267 48T216 6T155 -11Q125 -11 98 4T59 56Q57 64 57 83V101L92 241Q127 382 128 383Q128 385 77 385H26Z"></path><path id="MJX-20-TEX-N-2B" d="M56 237T56 250T70 270H369V420L370 570Q380 583 389 583Q402 583 409 568V270H707Q722 262 722 250T707 230H409V-68Q401 -82 391 -82H389H387Q375 -82 369 -68V230H70Q56 237 56 250Z"></path><path id="MJX-20-TEX-N-31" d="M213 578L200 573Q186 568 160 563T102 556H83V602H102Q149 604 189 617T245 641T273 663Q275 666 285 666Q294 666 302 660V361L303 61Q310 54 315 52T339 48T401 46H427V0H416Q395 3 257 3Q121 3 100 0H88V46H114Q136 46 152 46T177 47T193 50T201 52T207 57T213 61V578Z"></path><path id="MJX-20-TEX-N-29" d="M60 749L64 750Q69 750 74 750H86L114 726Q208 641 251 514T294 250Q294 182 284 119T261 12T224 -76T186 -143T145 -194T113 -227T90 -246Q87 -249 86 -250H74Q66 -250 63 -250T58 -247T55 -238Q56 -237 66 -225Q221 -64 221 250T66 725Q56 737 55 738Q55 746 60 749Z"></path><path id="MJX-20-TEX-N-3D" d="M56 347Q56 360 70 367H707Q722 359 722 347Q722 336 708 328L390 327H72Q56 332 56 347ZM56 153Q56 168 72 173H708Q722 163 722 153Q722 140 707 133H70Q56 140 56 153Z"></path><path id="MJX-20-TEX-N-D7" d="M630 29Q630 9 609 9Q604 9 587 25T493 118L389 222L284 117Q178 13 175 11Q171 9 168 9Q160 9 154 15T147 29Q147 36 161 51T255 146L359 250L255 354Q174 435 161 449T147 471Q147 480 153 485T168 490Q173 490 175 489Q178 487 284 383L389 278L493 382Q570 459 587 475T609 491Q630 491 630 471Q630 464 620 453T522 355L418 250L522 145Q606 61 618 48T630 29Z"></path><path id="MJX-20-TEX-N-2212" d="M84 237T84 250T98 270H679Q694 262 694 250T679 230H98Q84 237 84 250Z"></path><path id="MJX-20-TEX-I-1D6FF" d="M195 609Q195 656 227 686T302 717Q319 716 351 709T407 697T433 690Q451 682 451 662Q451 644 438 628T403 612Q382 612 348 641T288 671T249 657T235 628Q235 584 334 463Q401 379 401 292Q401 169 340 80T205 -10H198Q127 -10 83 36T36 153Q36 286 151 382Q191 413 252 434Q252 435 245 449T230 481T214 521T201 566T195 609ZM112 130Q112 83 136 55T204 27Q233 27 256 51T291 111T309 178T316 232Q316 267 309 298T295 344T269 400L259 396Q215 381 183 342T137 256T118 179T112 130Z"></path><path id="MJX-20-TEX-I-1D447" d="M40 437Q21 437 21 445Q21 450 37 501T71 602L88 651Q93 669 101 677H569H659Q691 677 697 676T704 667Q704 661 687 553T668 444Q668 437 649 437Q640 437 637 437T631 442L629 445Q629 451 635 490T641 551Q641 586 628 604T573 629Q568 630 515 631Q469 631 457 630T439 622Q438 621 368 343T298 60Q298 48 386 46Q418 46 427 45T436 36Q436 31 433 22Q429 4 424 1L422 0Q419 0 415 0Q410 0 363 1T228 2Q99 2 64 0H49Q43 6 43 9T45 27Q49 40 55 46H83H94Q174 46 189 55Q190 56 191 56Q196 59 201 76T241 233Q258 301 269 344Q339 619 339 625Q339 630 310 630H279Q212 630 191 624Q146 614 121 583T67 467Q60 445 57 441T43 437H40Z"></path><path id="MJX-20-TEX-N-32" d="M109 429Q82 429 66 447T50 491Q50 562 103 614T235 666Q326 666 387 610T449 465Q449 422 429 383T381 315T301 241Q265 210 201 149L142 93L218 92Q375 92 385 97Q392 99 409 186V189H449V186Q448 183 436 95T421 3V0H50V19V31Q50 38 56 46T86 81Q115 113 136 137Q145 147 170 174T204 211T233 244T261 278T284 308T305 340T320 369T333 401T340 431T343 464Q343 527 309 573T212 619Q179 619 154 602T119 569T109 550Q109 549 114 549Q132 549 151 535T170 489Q170 464 154 447T109 429Z"></path></defs><g stroke="currentColor" fill="currentColor" stroke-width="0" transform="scale(1,-1)"><g data-mml-node="math"><g data-mml-node="msub"><g data-mml-node="mi"><use data-c="1D43E" xlink:href="#MJX-20-TEX-I-1D43E"></use></g><g data-mml-node="TeXAtom" transform="translate(882,-150) scale(0.707)" data-mjx-texclass="ORD"><g data-mml-node="mtext"><use data-c="74" xlink:href="#MJX-20-TEX-N-74"></use><use data-c="61" xlink:href="#MJX-20-TEX-N-61" transform="translate(389,0)"></use><use data-c="63" xlink:href="#MJX-20-TEX-N-63" transform="translate(889,0)"></use><use data-c="69" xlink:href="#MJX-20-TEX-N-69" transform="translate(1333,0)"></use><use data-c="74" xlink:href="#MJX-20-TEX-N-74" transform="translate(1611,0)"></use></g></g></g><g data-mml-node="mo" transform="translate(2346.2,0)"><use data-c="28" xlink:href="#MJX-20-TEX-N-28"></use></g><g data-mml-node="mi" transform="translate(2735.2,0)"><use data-c="1D461" xlink:href="#MJX-20-TEX-I-1D461"></use></g><g data-mml-node="mo" transform="translate(3318.4,0)"><use data-c="2B" xlink:href="#MJX-20-TEX-N-2B"></use></g><g data-mml-node="mn" transform="translate(4318.7,0)"><use data-c="31" xlink:href="#MJX-20-TEX-N-31"></use></g><g data-mml-node="mo" transform="translate(4818.7,0)"><use data-c="29" xlink:href="#MJX-20-TEX-N-29"></use></g><g data-mml-node="mo" transform="translate(5485.4,0)"><use data-c="3D" xlink:href="#MJX-20-TEX-N-3D"></use></g><g data-mml-node="msub" transform="translate(6541.2,0)"><g data-mml-node="mi"><use data-c="1D43E" xlink:href="#MJX-20-TEX-I-1D43E"></use></g><g data-mml-node="TeXAtom" transform="translate(882,-150) scale(0.707)" data-mjx-texclass="ORD"><g data-mml-node="mtext"><use data-c="74" xlink:href="#MJX-20-TEX-N-74"></use><use data-c="61" xlink:href="#MJX-20-TEX-N-61" transform="translate(389,0)"></use><use data-c="63" xlink:href="#MJX-20-TEX-N-63" transform="translate(889,0)"></use><use data-c="69" xlink:href="#MJX-20-TEX-N-69" transform="translate(1333,0)"></use><use data-c="74" xlink:href="#MJX-20-TEX-N-74" transform="translate(1611,0)"></use></g></g></g><g data-mml-node="mo" transform="translate(8887.4,0)"><use data-c="28" xlink:href="#MJX-20-TEX-N-28"></use></g><g data-mml-node="mi" transform="translate(9276.4,0)"><use data-c="1D461" xlink:href="#MJX-20-TEX-I-1D461"></use></g><g data-mml-node="mo" transform="translate(9637.4,0)"><use data-c="29" xlink:href="#MJX-20-TEX-N-29"></use></g><g data-mml-node="mo" transform="translate(10248.6,0)"><use data-c="D7" xlink:href="#MJX-20-TEX-N-D7"></use></g><g data-mml-node="mo" transform="translate(11248.9,0)"><use data-c="28" xlink:href="#MJX-20-TEX-N-28"></use></g><g data-mml-node="mn" transform="translate(11637.9,0)"><use data-c="31" xlink:href="#MJX-20-TEX-N-31"></use></g><g data-mml-node="mo" transform="translate(12360.1,0)"><use data-c="2212" xlink:href="#MJX-20-TEX-N-2212"></use></g><g data-mml-node="mi" transform="translate(13360.3,0)"><use data-c="1D6FF" xlink:href="#MJX-20-TEX-I-1D6FF"></use></g><g data-mml-node="mo" transform="translate(13804.3,0)"><use data-c="29" xlink:href="#MJX-20-TEX-N-29"></use></g><g data-mml-node="mo" transform="translate(14415.5,0)"><use data-c="2B" xlink:href="#MJX-20-TEX-N-2B"></use></g><g data-mml-node="mi" transform="translate(15415.8,0)"><use data-c="1D447" xlink:href="#MJX-20-TEX-I-1D447"></use></g><g data-mml-node="mo" transform="translate(16119.8,0)"><use data-c="28" xlink:href="#MJX-20-TEX-N-28"></use></g><g data-mml-node="mi" transform="translate(16508.8,0)"><use data-c="1D461" xlink:href="#MJX-20-TEX-I-1D461"></use></g><g data-mml-node="mo" transform="translate(16869.8,0)"><use data-c="29" xlink:href="#MJX-20-TEX-N-29"></use></g><g data-mml-node="mstyle" transform="translate(17258.8,0)"><g data-mml-node="mspace"></g></g><g data-mml-node="mo" transform="translate(19258.8,0)"><use data-c="28" xlink:href="#MJX-20-TEX-N-28"></use></g><g data-mml-node="mn" transform="translate(19647.8,0)"><use data-c="31" xlink:href="#MJX-20-TEX-N-31"></use><use data-c="32" xlink:href="#MJX-20-TEX-N-32" transform="translate(500,0)"></use></g><g data-mml-node="mo" transform="translate(20647.8,0)"><use data-c="29" xlink:href="#MJX-20-TEX-N-29"></use></g></g></g></svg>