<svg style="vertical-align: -2.202ex;" xmlns="http://www.w3.org/2000/svg" width="29.22ex" height="6.255ex" role="img" focusable="false" viewBox="-165.8 -1625.8 12915.4 2764.7" xmlns:xlink="http://www.w3.org/1999/xlink"><rect id="equation-background" x="-165.8" y="-1625.8" width="12915.4" height="2764.7" fill="white" /><defs><path id="MJX-4-TEX-I-1D715" d="M202 508Q179 508 169 520T158 547Q158 557 164 577T185 624T230 675T301 710L333 715H345Q378 715 384 714Q447 703 489 661T549 568T566 457Q566 362 519 240T402 53Q321 -22 223 -22Q123 -22 73 56Q42 102 42 148V159Q42 276 129 370T322 465Q383 465 414 434T455 367L458 378Q478 461 478 515Q478 603 437 639T344 676Q266 676 223 612Q264 606 264 572Q264 547 246 528T202 508ZM430 306Q430 372 401 400T333 428Q270 428 222 382Q197 354 183 323T150 221Q132 149 132 116Q132 21 232 21Q244 21 250 22Q327 35 374 112Q389 137 409 196T430 306Z"></path><path id="MJX-4-TEX-I-1D449" d="M52 648Q52 670 65 683H76Q118 680 181 680Q299 680 320 683H330Q336 677 336 674T334 656Q329 641 325 637H304Q282 635 274 635Q245 630 242 620Q242 618 271 369T301 118L374 235Q447 352 520 471T595 594Q599 601 599 609Q599 633 555 637Q537 637 537 648Q537 649 539 661Q542 675 545 679T558 683Q560 683 570 683T604 682T668 681Q737 681 755 683H762Q769 676 769 672Q769 655 760 640Q757 637 743 637Q730 636 719 635T698 630T682 623T670 615T660 608T652 599T645 592L452 282Q272 -9 266 -16Q263 -18 259 -21L241 -22H234Q216 -22 216 -15Q213 -9 177 305Q139 623 138 626Q133 637 76 637H59Q52 642 52 648Z"></path><path id="MJX-4-TEX-I-1D460" d="M131 289Q131 321 147 354T203 415T300 442Q362 442 390 415T419 355Q419 323 402 308T364 292Q351 292 340 300T328 326Q328 342 337 354T354 372T367 378Q368 378 368 379Q368 382 361 388T336 399T297 405Q249 405 227 379T204 326Q204 301 223 291T278 274T330 259Q396 230 396 163Q396 135 385 107T352 51T289 7T195 -10Q118 -10 86 19T53 87Q53 126 74 143T118 160Q133 160 146 151T160 120Q160 94 142 76T111 58Q109 57 108 57T107 55Q108 52 115 47T146 34T201 27Q237 27 263 38T301 66T318 97T323 122Q323 150 302 164T254 181T195 196T148 231Q131 256 131 289Z"></path><path id="MJX-4-TEX-I-1D43C" d="M43 1Q26 1 26 10Q26 12 29 24Q34 43 39 45Q42 46 54 46H60Q120 46 136 53Q137 53 138 54Q143 56 149 77T198 273Q210 318 216 344Q286 624 286 626Q284 630 284 631Q274 637 213 637H193Q184 643 189 662Q193 677 195 680T209 683H213Q285 681 359 681Q481 681 487 683H497Q504 676 504 672T501 655T494 639Q491 637 471 637Q440 637 407 634Q393 631 388 623Q381 609 337 432Q326 385 315 341Q245 65 245 59Q245 52 255 50T307 46H339Q345 38 345 37T342 19Q338 6 332 0H316Q279 2 179 2Q143 2 113 2T65 2T43 1Z"></path><path id="MJX-4-TEX-I-1D45D" d="M23 287Q24 290 25 295T30 317T40 348T55 381T75 411T101 433T134 442Q209 442 230 378L240 387Q302 442 358 442Q423 442 460 395T497 281Q497 173 421 82T249 -10Q227 -10 210 -4Q199 1 187 11T168 28L161 36Q160 35 139 -51T118 -138Q118 -144 126 -145T163 -148H188Q194 -155 194 -157T191 -175Q188 -187 185 -190T172 -194Q170 -194 161 -194T127 -193T65 -192Q-5 -192 -24 -194H-32Q-39 -187 -39 -183Q-37 -156 -26 -148H-6Q28 -147 33 -136Q36 -130 94 103T155 350Q156 355 156 364Q156 405 131 405Q109 405 94 377T71 316T59 280Q57 278 43 278H29Q23 284 23 287ZM178 102Q200 26 252 26Q282 26 310 49T356 107Q374 141 392 215T411 325V331Q411 405 350 405Q339 405 328 402T306 393T286 380T269 365T254 350T243 336T235 326L232 322Q232 321 229 308T218 264T204 212Q178 106 178 102Z"></path><path id="MJX-4-TEX-N-3D" d="M56 347Q56 360 70 367H707Q722 359 722 347Q722 336 708 328L390 327H72Q56 332 56 347ZM56 153Q56 168 72 173H708Q722 163 722 153Q722 140 707 133H70Q56 140 56 153Z"></path><path id="MJX-4-TEX-I-1D440" d="M289 629Q289 635 232 637Q208 637 201 638T194 648Q194 649 196 659Q197 662 198 666T199 671T201 676T203 679T207 681T212 683T220 683T232 684Q238 684 262 684T307 683Q386 683 398 683T414 678Q415 674 451 396L487 117L510 154Q534 190 574 254T662 394Q837 673 839 675Q840 676 842 678T846 681L852 683H948Q965 683 988 683T1017 684Q1051 684 1051 673Q1051 668 1048 656T1045 643Q1041 637 1008 637Q968 636 957 634T939 623Q936 618 867 340T797 59Q797 55 798 54T805 50T822 48T855 46H886Q892 37 892 35Q892 19 885 5Q880 0 869 0Q864 0 828 1T736 2Q675 2 644 2T609 1Q592 1 592 11Q592 13 594 25Q598 41 602 43T625 46Q652 46 685 49Q699 52 704 61Q706 65 742 207T813 490T848 631L654 322Q458 10 453 5Q451 4 449 3Q444 0 433 0Q418 0 415 7Q413 11 374 317L335 624L267 354Q200 88 200 79Q206 46 272 46H282Q288 41 289 37T286 19Q282 3 278 1Q274 0 267 0Q265 0 255 0T221 1T157 2Q127 2 95 1T58 0Q43 0 39 2T35 11Q35 13 38 25T43 40Q45 46 65 46Q135 46 154 86Q158 92 223 354T289 629Z"></path><path id="MJX-4-TEX-N-28" d="M94 250Q94 319 104 381T127 488T164 576T202 643T244 695T277 729T302 750H315H319Q333 750 333 741Q333 738 316 720T275 667T226 581T184 443T167 250T184 58T225 -81T274 -167T316 -220T333 -241Q333 -250 318 -250H315H302L274 -226Q180 -141 137 -14T94 250Z"></path><path id="MJX-4-TEX-I-1D451" d="M366 683Q367 683 438 688T511 694Q523 694 523 686Q523 679 450 384T375 83T374 68Q374 26 402 26Q411 27 422 35Q443 55 463 131Q469 151 473 152Q475 153 483 153H487H491Q506 153 506 145Q506 140 503 129Q490 79 473 48T445 8T417 -8Q409 -10 393 -10Q359 -10 336 5T306 36L300 51Q299 52 296 50Q294 48 292 46Q233 -10 172 -10Q117 -10 75 30T33 157Q33 205 53 255T101 341Q148 398 195 420T280 442Q336 442 364 400Q369 394 369 396Q370 400 396 505T424 616Q424 629 417 632T378 637H357Q351 643 351 645T353 664Q358 683 366 683ZM352 326Q329 405 277 405Q242 405 210 374T160 293Q131 214 119 129Q119 126 119 118T118 106Q118 61 136 44T179 26Q233 26 290 98L298 109L352 326Z"></path><path id="MJX-4-TEX-N-29" d="M60 749L64 750Q69 750 74 750H86L114 726Q208 641 251 514T294 250Q294 182 284 119T261 12T224 -76T186 -143T145 -194T113 -227T90 -246Q87 -249 86 -250H74Q66 -250 63 -250T58 -247T55 -238Q56 -237 66 -225Q221 -64 221 250T66 725Q56 737 55 738Q55 746 60 749Z"></path><path id="MJX-4-TEX-N-D7" d="M630 29Q630 9 609 9Q604 9 587 25T493 118L389 222L284 117Q178 13 175 11Q171 9 168 9Q160 9 154 15T147 29Q147 36 161 51T255 146L359 250L255 354Q174 435 161 449T147 471Q147 480 153 485T168 490Q173 490 175 489Q178 487 284 383L389 278L493 382Q570 459 587 475T609 491Q630 491 630 471Q630 464 620 453T522 355L418 250L522 145Q606 61 618 48T630 29Z"></path><path id="MJX-4-TEX-I-1D439" d="M48 1Q31 1 31 11Q31 13 34 25Q38 41 42 43T65 46Q92 46 125 49Q139 52 144 61Q146 66 215 342T285 622Q285 629 281 629Q273 632 228 634H197Q191 640 191 642T193 659Q197 676 203 680H742Q749 676 749 669Q749 664 736 557T722 447Q720 440 702 440H690Q683 445 683 453Q683 454 686 477T689 530Q689 560 682 579T663 610T626 626T575 633T503 634H480Q398 633 393 631Q388 629 386 623Q385 622 352 492L320 363H375Q378 363 398 363T426 364T448 367T472 374T489 386Q502 398 511 419T524 457T529 475Q532 480 548 480H560Q567 475 567 470Q567 467 536 339T502 207Q500 200 482 200H470Q463 206 463 212Q463 215 468 234T473 274Q473 303 453 310T364 317H309L277 190Q245 66 245 60Q245 46 334 46H359Q365 40 365 39T363 19Q359 6 353 0H336Q295 2 185 2Q120 2 86 2T48 1Z"></path><path id="MJX-4-TEX-N-AF" d="M69 544V590H430V544H69Z"></path><path id="MJX-4-TEX-N-33" d="M127 463Q100 463 85 480T69 524Q69 579 117 622T233 665Q268 665 277 664Q351 652 390 611T430 522Q430 470 396 421T302 350L299 348Q299 347 308 345T337 336T375 315Q457 262 457 175Q457 96 395 37T238 -22Q158 -22 100 21T42 130Q42 158 60 175T105 193Q133 193 151 175T169 130Q169 119 166 110T159 94T148 82T136 74T126 70T118 67L114 66Q165 21 238 21Q293 21 321 74Q338 107 338 175V195Q338 290 274 322Q259 328 213 329L171 330L168 332Q166 335 166 348Q166 366 174 366Q202 366 232 371Q266 376 294 413T322 525V533Q322 590 287 612Q265 626 240 626Q208 626 181 615T143 592T132 580H135Q138 579 143 578T153 573T165 566T175 555T183 540T186 520Q186 498 172 481T127 463Z"></path></defs><g stroke="currentColor" fill="currentColor" stroke-width="0" transform="scale(1,-1)"><g data-mml-node="math"><g data-mml-node="mfrac"><g data-mml-node="mrow" transform="translate(220,676)"><g data-mml-node="mi"><use data-c="1D715" xlink:href="#MJX-4-TEX-I-1D715"></use></g><g data-mml-node="msub" transform="translate(566,0)"><g data-mml-node="mi"><use data-c="1D449" xlink:href="#MJX-4-TEX-I-1D449"></use></g><g data-mml-node="mi" transform="translate(616,-150) scale(0.707)"><use data-c="1D460" xlink:href="#MJX-4-TEX-I-1D460"></use></g></g></g><g data-mml-node="mrow" transform="translate(279.5,-686)"><g data-mml-node="mi"><use data-c="1D715" xlink:href="#MJX-4-TEX-I-1D715"></use></g><g data-mml-node="msub" transform="translate(566,0)"><g data-mml-node="mi"><use data-c="1D43C" xlink:href="#MJX-4-TEX-I-1D43C"></use></g><g data-mml-node="mi" transform="translate(473,-150) scale(0.707)"><use data-c="1D45D" xlink:href="#MJX-4-TEX-I-1D45D"></use></g></g></g><rect width="1763.6" height="60" x="120" y="220"></rect></g><g data-mml-node="mo" transform="translate(2281.4,0)"><use data-c="3D" xlink:href="#MJX-4-TEX-N-3D"></use></g><g data-mml-node="mfrac" transform="translate(3337.2,0)"><g data-mml-node="mrow" transform="translate(220,710)"><g data-mml-node="mi"><use data-c="1D715" xlink:href="#MJX-4-TEX-I-1D715"></use></g><g data-mml-node="msub" transform="translate(566,0)"><g data-mml-node="mi"><use data-c="1D440" xlink:href="#MJX-4-TEX-I-1D440"></use></g><g data-mml-node="mi" transform="translate(1003,-150) scale(0.707)"><use data-c="1D460" xlink:href="#MJX-4-TEX-I-1D460"></use></g></g><g data-mml-node="mo" transform="translate(1950.6,0)"><use data-c="28" xlink:href="#MJX-4-TEX-N-28"></use></g><g data-mml-node="mi" transform="translate(2339.6,0)"><use data-c="1D451" xlink:href="#MJX-4-TEX-I-1D451"></use></g><g data-mml-node="mo" transform="translate(2859.6,0)"><use data-c="29" xlink:href="#MJX-4-TEX-N-29"></use></g></g><g data-mml-node="mrow" transform="translate(1122,-686)"><g data-mml-node="mi"><use data-c="1D715" xlink:href="#MJX-4-TEX-I-1D715"></use></g><g data-mml-node="msub" transform="translate(566,0)"><g data-mml-node="mi"><use data-c="1D43C" xlink:href="#MJX-4-TEX-I-1D43C"></use></g><g data-mml-node="mi" transform="translate(473,-150) scale(0.707)"><use data-c="1D45D" xlink:href="#MJX-4-TEX-I-1D45D"></use></g></g></g><rect width="3448.6" height="60" x="120" y="220"></rect></g><g data-mml-node="mo" transform="translate(7248,0)"><use data-c="D7" xlink:href="#MJX-4-TEX-N-D7"></use></g><g data-mml-node="msub" transform="translate(8248.3,0)"><g data-mml-node="TeXAtom" data-mjx-texclass="ORD"><g data-mml-node="mover"><g data-mml-node="mi"><use data-c="1D439" xlink:href="#MJX-4-TEX-I-1D439"></use></g><g data-mml-node="mo" transform="translate(484.3,241) translate(-250 0)"><use data-c="AF" xlink:href="#MJX-4-TEX-N-AF"></use></g></g></g><g data-mml-node="mi" transform="translate(676,-150) scale(0.707)"><use data-c="1D460" xlink:href="#MJX-4-TEX-I-1D460"></use></g></g><g data-mml-node="mstyle" transform="translate(9305.9,0)"><g data-mml-node="mspace"></g></g><g data-mml-node="mo" transform="translate(11305.9,0)"><use data-c="28" xlink:href="#MJX-4-TEX-N-28"></use></g><g data-mml-node="mn" transform="translate(11694.9,0)"><use data-c="33" xlink:href="#MJX-4-TEX-N-33"></use></g><g data-mml-node="mo" transform="translate(12194.9,0)"><use data-c="29" xlink:href="#MJX-4-TEX-N-29"></use></g></g></g></svg>